<svg xmlns="http://www.w3.org/2000/svg" xmlns:xlink="http://www.w3.org/1999/xlink" viewBox="0 0 1920 458"><style><![CDATA[.I{clip-path:url(#I)}.J{opacity:.4}.K{opacity:.5}.L{opacity:.76}.M{fill:#fb8989}]]></style><defs><path id="A" d="M0 0h1920v458H0z"/><path id="B" d="M1620.5 351.8h42.1c1.4 1.2 2.3 3 2.3 5 0 3.6-2.9 6.6-6.5 6.6-2.8 0-5.2-1.8-6.1-4.3h-2.2l1.8 1.9h-20l1.7-1.9h-2.9c-.9 2.5-3.3 4.3-6.1 4.3-3.6 0-6.5-2.9-6.5-6.6.1-2 1-3.8 2.4-5z"/><path id="C" d="M1900.7 351.5h42.1c1.4 1.2 2.3 3 2.3 5 0 3.6-2.9 6.6-6.5 6.6-2.8 0-5.2-1.8-6.1-4.3h-2.2l1.8 1.9h-20l1.7-1.9h-2.9c-.9 2.5-3.3 4.3-6.1 4.3-3.6 0-6.5-2.9-6.5-6.6 0-2 .9-3.8 2.4-5z"/><path id="D" d="M1652.4 330.5h8.2c.3 0 .6-.3.6-.6V315c0-.3-.3-.6-.6-.6h-8.2c-.3 0-.6.3-.6.6v14.9c0 .4.3.6.6.6z"/><path id="E" d="M1646.8 347.4v-39.9c0-1.3 1.1-2.4 2.4-2.4h14.6c1.3 0 2.4 1.1 2.4 2.4v39.9c0 1.3-1.1 2.4-2.4 2.4h-14.6c-1.3 0-2.4-1-2.4-2.4zm2.5-41.4c-.9 0-1.6.7-1.6 1.6v39.9c0 .9.7 1.6 1.6 1.6h14.6c.9 0 1.6-.7 1.6-1.6v-39.9c0-.9-.7-1.6-1.6-1.6h-14.6z"/><path id="F" d="M1941.5 314.4h8.6c.2 0 .4.2.4.4v10.1h-9.4v-10.1c0-.3.2-.4.4-.4z"/><path id="G" d="M2300.2 347.4v-39.9c0-1.3 1.1-2.4 2.4-2.4h14.6c1.3 0 2.4 1.1 2.4 2.4v39.9c0 1.3-1.1 2.4-2.4 2.4h-14.6c-1.3 0-2.4-1-2.4-2.4zm2.4-41.4c-.9 0-1.6.7-1.6 1.6v39.9c0 .9.7 1.6 1.6 1.6h14.6c.9 0 1.6-.7 1.6-1.6v-39.9c0-.9-.7-1.6-1.6-1.6h-14.6z"/><path id="H" d="M324.5 302.9h-16c-4.5 0-8.2 3.3-8.2 7.5v31.7h32.3v-31.7c0-4.1-3.6-7.5-8.1-7.5z"/></defs><clipPath id="I"><use xlink:href="#A"/></clipPath><linearGradient id="J" gradientUnits="userSpaceOnUse" x1="1207.355" y1="581.499" x2="1436.569" y2="41.504"><stop offset=".509" stop-color="#acceef"/><stop offset=".612" stop-color="#b1cfee"/><stop offset=".731" stop-color="#bfd0e9"/><stop offset=".857" stop-color="#d6d3e3"/><stop offset=".988" stop-color="#f6d8d9"/><stop offset="1" stop-color="#f9d8d8"/></linearGradient><path d="M1870.5 371.5c-68.4-168.8-305.8-330.6-579.6-330.6S787 183.1 722 375.5l1148.5-4z" fill="url(#J)" class="I"/><g class="I"><linearGradient id="K" gradientUnits="userSpaceOnUse" x1="1641.589" y1="351.791" x2="1641.589" y2="363.377"><stop offset="0" stop-color="#425486" stop-opacity="0"/><stop offset=".388" stop-color="#425486"/><stop offset=".935" stop-color="#5072a9"/></linearGradient><use xlink:href="#B" fill="url(#K)"/><linearGradient id="L" gradientUnits="userSpaceOnUse" x1="1921.708" y1="351.517" x2="1921.708" y2="363.104"><stop offset="0" stop-color="#425486" stop-opacity="0"/><stop offset=".388" stop-color="#425486"/><stop offset=".935" stop-color="#5072a9"/></linearGradient><use xlink:href="#C" fill="url(#L)"/><linearGradient id="M" gradientUnits="userSpaceOnUse" x1="2019.855" y1="351.517" x2="2019.855" y2="363.104"><stop offset="0" stop-color="#425486" stop-opacity="0"/><stop offset=".388" stop-color="#425486"/><stop offset=".935" stop-color="#5072a9"/></linearGradient><path d="M1998.8 351.5h42.1c1.4 1.2 2.3 3 2.3 5 0 3.6-2.9 6.6-6.5 6.6-2.8 0-5.2-1.8-6.1-4.3h-2.2l1.8 1.9h-20l1.7-1.9h-2.9c-.9 2.5-3.3 4.3-6.1 4.3-3.6 0-6.5-2.9-6.5-6.6.1-2 1-3.8 2.4-5z" fill="url(#M)"/><linearGradient id="N" gradientUnits="userSpaceOnUse" x1="2234.084" y1="351.517" x2="2234.084" y2="363.104"><stop offset="0" stop-color="#425486" stop-opacity="0"/><stop offset=".388" stop-color="#425486"/><stop offset=".935" stop-color="#5072a9"/></linearGradient><path d="M2213 351.5h42.1c1.4 1.2 2.3 3 2.3 5 0 3.6-2.9 6.6-6.5 6.6-2.8 0-5.2-1.8-6.1-4.3h-2.2l1.8 1.9h-20l1.7-1.9h-2.9c-.9 2.5-3.3 4.3-6.1 4.3-3.6 0-6.5-2.9-6.5-6.6.1-2 1-3.8 2.4-5z" fill="url(#N)"/><linearGradient id="O" gradientUnits="userSpaceOnUse" x1="2347.673" y1="351.517" x2="2347.673" y2="363.104"><stop offset="0" stop-color="#425486" stop-opacity="0"/><stop offset=".388" stop-color="#425486"/><stop offset=".935" stop-color="#5072a9"/></linearGradient><path d="M2326.6 351.5h42.1c1.4 1.2 2.3 3 2.3 5 0 3.6-2.9 6.6-6.5 6.6-2.8 0-5.2-1.8-6.1-4.3h-2.2l1.8 1.9h-20l1.7-1.9h-2.9c-.9 2.5-3.3 4.3-6.1 4.3-3.6 0-6.5-2.9-6.5-6.6.1-2 1-3.8 2.4-5z" fill="url(#O)"/><linearGradient id="P" gradientUnits="userSpaceOnUse" x1="2561.903" y1="351.517" x2="2561.903" y2="363.104"><stop offset="0" stop-color="#425486" stop-opacity="0"/><stop offset=".388" stop-color="#425486"/><stop offset=".935" stop-color="#5072a9"/></linearGradient><path d="M2540.9 351.5h42.1c1.4 1.2 2.3 3 2.3 5 0 3.6-2.9 6.6-6.5 6.6-2.8 0-5.2-1.8-6.1-4.3h-2.2l1.8 1.9h-20l1.7-1.9h-2.9c-.9 2.5-3.3 4.3-6.1 4.3-3.6 0-6.5-2.9-6.5-6.6 0-2 .9-3.8 2.4-5z" fill="url(#P)"/><linearGradient id="Q" gradientUnits="userSpaceOnUse" x1="2665.254" y1="351.517" x2="2665.254" y2="363.104"><stop offset="0" stop-color="#425486" stop-opacity="0"/><stop offset=".388" stop-color="#425486"/><stop offset=".935" stop-color="#5072a9"/></linearGradient><path d="M2644.2 351.5h42.1c1.4 1.2 2.3 3 2.3 5 0 3.6-2.9 6.6-6.5 6.6-2.8 0-5.2-1.8-6.1-4.3h-2.2l1.8 1.9h-20l1.7-1.9h-2.9c-.9 2.5-3.3 4.3-6.1 4.3-3.6 0-6.5-2.9-6.5-6.6.1-2 1-3.8 2.4-5z" fill="url(#Q)"/><linearGradient id="R" gradientUnits="userSpaceOnUse" x1="1586.912" y1="351.517" x2="1586.912" y2="363.104"><stop offset="0" stop-color="#425486" stop-opacity="0"/><stop offset=".388" stop-color="#425486"/><stop offset=".935" stop-color="#5072a9"/></linearGradient><path d="M1565.9 351.5h42.1c1.4 1.2 2.3 3 2.3 5 0 3.6-2.9 6.6-6.5 6.6-2.8 0-5.2-1.8-6.1-4.3h-2.2l1.8 1.9h-20l1.7-1.9h-2.9c-.9 2.5-3.3 4.3-6.1 4.3-3.6 0-6.5-2.9-6.5-6.6 0-2 1-3.8 2.4-5z" fill="url(#R)"/><linearGradient id="S" gradientUnits="userSpaceOnUse" x1="2163.841" y1="362.741" x2="2163.841" y2="366.395"><stop offset="0" stop-color="#242f65"/><stop offset="1" stop-color="#242f65" stop-opacity="0"/></linearGradient><path d="M2810 366.3l-1277.7.1c-7.8 0-14.6-2.1-14.7-3.7l1292.3.3v3.3z" fill="url(#S)"/><linearGradient id="T" gradientUnits="userSpaceOnUse" x1="2164.752" y1="348.548" x2="2164.752" y2="368.365"><stop offset=".167" stop-color="#242f65"/><stop offset=".544" stop-color="#242f65" stop-opacity=".14"/><stop offset=".605" stop-color="#242f65" stop-opacity="0"/></linearGradient><path d="M2810.6 367.6l-1278.1.8c-7.4 0-13.5-8.4-13.5-18.8l1291.6-1.1v19.1z" opacity=".67" fill="url(#T)"/><linearGradient id="U" gradientUnits="userSpaceOnUse" x1="1800.55" y1="354.415" x2="1506.452" y2="354.415"><stop offset=".065" stop-color="#5072a9"/><stop offset=".809" stop-color="#425486"/></linearGradient><path d="M1507 348.2s14.5 6.4 50.5 2.8l243.1-.5v3.2l-83.6.5v-2.8h-10.3v2.8h-3.9v-2.8h-16.6v2.8h-127.5c-2.6 2.4-6.9 3.8-6.9 3.8v2.8c-29.4.4-32.3-2.8-32.3-2.8l-.6-2.1c-8.3-2.3-11.5-5.6-12.4-8.1 0 .1 0 .3.5.4z" fill="url(#U)"/><linearGradient id="V" gradientUnits="userSpaceOnUse" x1="1551.745" y1="358.456" x2="1518.944" y2="358.456"><stop offset=".065" stop-color="#5072a9"/><stop offset=".809" stop-color="#425486"/></linearGradient><path d="M1551.7 358v2.8c-29.4.4-32.2-2.8-32.2-2.8l-.6-2c2.5.7 10.3 1.7 32.8 2z" fill="url(#V)"/><linearGradient id="W" gradientUnits="userSpaceOnUse" x1="2000.298" y1="50.718" x2="2337.016" y2="633.932"><stop offset=".166" stop-color="#242f65" stop-opacity="0"/><stop offset=".556" stop-color="#242f65" stop-opacity=".585"/><stop offset=".84" stop-color="#242f65"/></linearGradient><path d="M1507.2 340.9c.9-1.1 6.3-6.3 15-12.8.2-.1.3-.3.5-.4.8-.6 1.7-1.3 2.6-1.9 3.4-2.4 7-4.8 11.3-7.3 4.4-2.7 9.2-5.4 14.4-7.9 25.3-12.5 59.7-13.3 59.7-13.3l1193.4-.5c3.6 0 6.5 3 6.5 6.6v57.2l-1288.3 1.3c-.7-1.2-1.3-2.4-1.8-3.8-.4-.1-.6-.3-.7-.4 0 0-.1 0-.1-.1 0 0-.1 0-.1-.1h-.1l-.6-2.1c-7.5-2.1-11.1-5.2-12.5-7.5-.1-.2-.2-.3-.2-.4-.1 0-.1-.1 0-.1-.3-.7-.4-1.3-.4-2-.4-1.7.9-3.8 1.4-4.5z" opacity=".34" fill="url(#W)"/><linearGradient id="X" gradientUnits="userSpaceOnUse" x1="1670.437" y1="307.33" x2="1641.617" y2="307.33"><stop offset=".25" stop-color="#7ea6d6"/><stop offset=".32" stop-color="#8db1db"/><stop offset=".552" stop-color="#b9d0eb"/><stop offset=".733" stop-color="#d4e4f5"/><stop offset=".839" stop-color="#deebf9"/><stop offset=".906" stop-color="#c9dbf0"/><stop offset=".957" stop-color="#bfd3eb"/></linearGradient><path d="M1664.6 310.8h-17.1c-3.2 0-5.9-2.6-5.9-5.8v-1.2h28.8v1.2c0 3.2-2.6 5.8-5.8 5.8z" fill="url(#X)"/><path d="M1507.7 340.9c1.7-2 19.4-17.8 46-30.3 26.7-12.5 62.8-13.3 62.8-13.3l1186-.7c4.4 0 8 3.6 8 8.1v44.2c0 2.3-1.8 4.1-4 4.1l-1076.5.7v-2.8h-45.1v2.8l-126.6-.3c-2.7 2.4-9.2 4.3-9.2 4.3l.4 2.2c-31 .4-29.3-2.4-29.3-2.4l-.9-2.8c-18.5-4.9-13.3-11.7-11.6-13.8z" class="M"/><linearGradient id="Y" gradientUnits="userSpaceOnUse" x1="1571.853" y1="318.471" x2="1571.853" y2="331.781"><stop offset=".076" stop-color="#a1a9c3"/><stop offset=".101" stop-color="#9ba4bf"/><stop offset=".198" stop-color="#8893b3"/><stop offset=".313" stop-color="#7b88aa"/><stop offset=".459" stop-color="#7381a5"/><stop offset=".75" stop-color="#717fa4"/></linearGradient><path d="M1579.3 331.1l-8.9.7-6-10.2c4.8-1.2 9.8-2.3 14.8-3.1v12.6z" fill="url(#Y)"/><linearGradient id="Z" gradientUnits="userSpaceOnUse" x1="1618.398" y1="314.994" x2="1618.398" y2="329.957"><stop offset=".076" stop-color="#a1a9c3"/><stop offset=".101" stop-color="#9ba4bf"/><stop offset=".198" stop-color="#8893b3"/><stop offset=".313" stop-color="#7b88aa"/><stop offset=".459" stop-color="#7381a5"/><stop offset=".75" stop-color="#717fa4"/></linearGradient><path d="M1623.1 315l-9.4.2V330h9.4v-15z" fill="url(#Z)"/><linearGradient id="a" gradientUnits="userSpaceOnUse" x1="1559.105" y1="321.829" x2="1559.105" y2="333.578"><stop offset=".076" stop-color="#a1a9c3"/><stop offset=".101" stop-color="#9ba4bf"/><stop offset=".198" stop-color="#8893b3"/><stop offset=".313" stop-color="#7b88aa"/><stop offset=".459" stop-color="#7381a5"/><stop offset=".75" stop-color="#717fa4"/></linearGradient><path d="M1548.9 326.9l4.5 6.7 15.9-1.7-5.9-10.1c-5.2 1.4-10.1 3.1-14.5 5.1z" fill="url(#a)"/><linearGradient id="b" gradientUnits="userSpaceOnUse" x1="1631.783" y1="314.967" x2="1631.783" y2="329.941"><stop offset=".076" stop-color="#a1a9c3"/><stop offset=".101" stop-color="#9ba4bf"/><stop offset=".198" stop-color="#8893b3"/><stop offset=".313" stop-color="#7b88aa"/><stop offset=".459" stop-color="#7381a5"/><stop offset=".75" stop-color="#717fa4"/></linearGradient><path d="M1624.1 329.9h15.3v-14.8s-6.1-.3-15.3-.2v15z" fill="url(#b)"/><linearGradient id="c" gradientUnits="userSpaceOnUse" x1="1596.482" y1="315.266" x2="1596.482" y2="330.976"><stop offset=".076" stop-color="#a1a9c3"/><stop offset=".101" stop-color="#9ba4bf"/><stop offset=".198" stop-color="#8893b3"/><stop offset=".313" stop-color="#7b88aa"/><stop offset=".459" stop-color="#7381a5"/><stop offset=".75" stop-color="#717fa4"/></linearGradient><path d="M1580.3 331a233.49 233.49 0 0 1 11.5-.6l20.8-.4v-14.7c-9.8.4-21.2 1.3-32.4 3V331z" fill="url(#c)"/><path d="M1506.2 347.5c-.3-.7-.5-1.4-.5-2 1.2.3 2.8.4 4.9.4 6.1-.2 35.6-3.2 43.5-3.8 3.6-.3 1256.4-1.1 1256.4-1.1v4l-1255.5.8s-41 3.6-48.8 1.7z" fill="#fa6b6b"/><linearGradient id="d" gradientUnits="userSpaceOnUse" x1="1656.475" y1="314.37" x2="1656.475" y2="324.831"><stop offset=".192" stop-color="#7ea6d6"/><stop offset=".42" stop-color="#5e90cc"/><stop offset="1" stop-color="#425486"/></linearGradient><path d="M1652.2 314.4h8.6c.2 0 .4.2.4.4v10.1h-9.4v-10.1c0-.3.1-.4.4-.4z" fill="url(#d)"/><path d="M1512 345.8l-6.3.1c-.8-1.8.9-4.6 1.5-5.4 1.6-2 18.7-17.3 43.7-30.3 23.8-12.4 56.1-13 59.7-13.3l1193.5-.7c3.5 0 6.4 2.9 6.4 6.5v.9h-966.3l-248.7 1.9c-28.6.2-47.2 11.8-66.3 26.5-10.7 8-17.2 13.8-17.2 13.8z" fill="#fdb5b5"/><linearGradient id="e" gradientUnits="userSpaceOnUse" x1="1519.914" y1="320.21" x2="1553.688" y2="320.21"><stop offset="0" stop-color="#5e90cc"/><stop offset=".909" stop-color="#5e90cc" stop-opacity=".09"/><stop offset="1" stop-color="#5e90cc" stop-opacity="0"/></linearGradient><path d="M1519.9 329.6c5.1-4.4 10.7-8.3 18.9-13 3.6-2.1 8.3-4.7 12.2-6 .9.3 2.4 1.2 2.6 2.2.6 2.6-4.1 4.1-16.8 11-11.3 6.1-11.6 6.3-16.9 5.8z" fill="url(#e)" class="L"/><linearGradient id="f" gradientUnits="userSpaceOnUse" x1="1514.523" y1="334.614" x2="1514.523" y2="341.113"><stop offset="0" stop-color="#5e90cc"/><stop offset=".909" stop-color="#5e90cc" stop-opacity=".09"/><stop offset="1" stop-color="#5e90cc" stop-opacity="0"/></linearGradient><path d="M1514.7 334.8l6.1-.2s-7.8 5.4-10.2 6.3c-2.2.8-3.3-.6-1.4-2.2 2-1.7 5.5-3.9 5.5-3.9z" fill="url(#f)" class="L"/><linearGradient id="g" gradientUnits="userSpaceOnUse" x1="1656.475" y1="314.37" x2="1656.475" y2="330.538"><stop offset=".076" stop-color="#a1a9c3"/><stop offset=".101" stop-color="#9ba4bf"/><stop offset=".198" stop-color="#8893b3"/><stop offset=".313" stop-color="#7b88aa"/><stop offset=".459" stop-color="#7381a5"/><stop offset=".75" stop-color="#717fa4"/></linearGradient><use xlink:href="#D" fill="url(#g)"/><linearGradient id="h" gradientUnits="userSpaceOnUse" x1="1793.289" y1="316.6" x2="1793.289" y2="329.273"><stop offset=".076" stop-color="#a1a9c3"/><stop offset=".101" stop-color="#9ba4bf"/><stop offset=".198" stop-color="#8893b3"/><stop offset=".313" stop-color="#7b88aa"/><stop offset=".459" stop-color="#7381a5"/><stop offset=".75" stop-color="#717fa4"/></linearGradient><path fill="url(#h)" d="M1690.7 316.6h205.2v12.7h-205.2z"/><linearGradient id="i" gradientUnits="userSpaceOnUse" x1="1793.289" y1="316.12" x2="1793.289" y2="323.366"><stop offset=".076" stop-color="#a1a9c3"/><stop offset=".101" stop-color="#9ba4bf"/><stop offset=".198" stop-color="#8893b3"/><stop offset=".313" stop-color="#7b88aa"/><stop offset=".459" stop-color="#7381a5"/><stop offset=".75" stop-color="#717fa4"/></linearGradient><path fill="url(#i)" d="M1690.7 323.4h205.2v-7.3h-205.2z"/><linearGradient id="j" gradientUnits="userSpaceOnUse" x1="1656.544" y1="305.138" x2="1656.544" y2="349.834"><stop offset=".433" stop-color="#5072a9"/><stop offset=".809" stop-color="#425486"/></linearGradient><use xlink:href="#E" opacity=".37" fill="url(#j)"/><linearGradient id="k" gradientUnits="userSpaceOnUse" x1="1644.067" y1="297.04" x2="1644.067" y2="353.681"><stop offset="0" stop-color="#242f65"/><stop offset=".925" stop-color="#242f65" stop-opacity=".332"/></linearGradient><path fill="url(#k)" d="M1644.4 297l.1 56.7h-.8V297z" class="J"/><linearGradient id="l" gradientUnits="userSpaceOnUse" x1="2122.443" y1="316.6" x2="2122.443" y2="329.273"><stop offset=".191" stop-color="#425486"/><stop offset=".935" stop-color="#5072a9"/></linearGradient><path opacity=".74" fill="url(#l)" d="M2019.9 316.6h205.2v12.7h-205.2z"/><linearGradient id="m" gradientUnits="userSpaceOnUse" x1="2122.443" y1="316.12" x2="2122.443" y2="323.366"><stop offset="0" stop-color="#5e90cc"/><stop offset=".909" stop-color="#5e90cc" stop-opacity=".09"/><stop offset="1" stop-color="#5e90cc" stop-opacity="0"/></linearGradient><path fill="url(#m)" d="M2019.9 323.4H2225v-7.3h-205.1z" class="L"/><linearGradient id="n" gradientUnits="userSpaceOnUse" x1="1945.802" y1="314.37" x2="1945.802" y2="324.831"><stop offset=".192" stop-color="#7ea6d6"/><stop offset=".42" stop-color="#5e90cc"/><stop offset="1" stop-color="#425486"/></linearGradient><use xlink:href="#F" fill="url(#n)"/><linearGradient id="o" gradientUnits="userSpaceOnUse" x1="1950.502" y1="322.454" x2="1941.102" y2="322.454"><stop offset=".191" stop-color="#425486"/><stop offset=".935" stop-color="#5072a9"/></linearGradient><path d="M1941.7 330.5h8.2c.3 0 .6-.3.6-.6V315c0-.3-.3-.6-.6-.6h-8.2c-.3 0-.6.3-.6.6v14.9c0 .4.3.6.6.6z" fill="url(#o)"/><linearGradient id="p" gradientUnits="userSpaceOnUse" x1="1945.872" y1="305.138" x2="1945.872" y2="349.834"><stop offset="0" stop-color="#242f65"/><stop offset=".925" stop-color="#242f65" stop-opacity=".332"/></linearGradient><path d="M1936.1 347.4v-39.9c0-1.3 1.1-2.4 2.4-2.4h14.6c1.3 0 2.4 1.1 2.4 2.4v39.9c0 1.3-1.1 2.4-2.4 2.4h-14.6c-1.3 0-2.4-1-2.4-2.4zm2.5-41.4c-.9 0-1.6.7-1.6 1.6v39.9c0 .9.7 1.6 1.6 1.6h14.6c.9 0 1.6-.7 1.6-1.6v-39.9c0-.9-.7-1.6-1.6-1.6h-14.6z" fill="url(#p)" class="J"/><linearGradient id="q" gradientUnits="userSpaceOnUse" x1="2271.11" y1="314.37" x2="2271.11" y2="324.831"><stop offset=".192" stop-color="#7ea6d6"/><stop offset=".42" stop-color="#5e90cc"/><stop offset="1" stop-color="#425486"/></linearGradient><path d="M2266.8 314.4h8.6c.2 0 .4.2.4.4v10.1h-9.4v-10.1c0-.3.2-.4.4-.4z" fill="url(#q)"/><linearGradient id="r" gradientUnits="userSpaceOnUse" x1="2275.81" y1="322.454" x2="2266.41" y2="322.454"><stop offset=".191" stop-color="#425486"/><stop offset=".935" stop-color="#5072a9"/></linearGradient><path d="M2267 330.5h8.2c.3 0 .6-.3.6-.6V315c0-.3-.3-.6-.6-.6h-8.2c-.3 0-.6.3-.6.6v14.9c0 .4.3.6.6.6z" fill="url(#r)"/><linearGradient id="s" gradientUnits="userSpaceOnUse" x1="2271.179" y1="305.138" x2="2271.179" y2="349.834"><stop offset="0" stop-color="#242f65"/><stop offset=".925" stop-color="#242f65" stop-opacity=".332"/></linearGradient><path d="M2261.5 347.4v-39.9c0-1.3 1.1-2.4 2.4-2.4h14.6c1.3 0 2.4 1.1 2.4 2.4v39.9c0 1.3-1.1 2.4-2.4 2.4h-14.6c-1.4 0-2.4-1-2.4-2.4zm2.4-41.4c-.9 0-1.6.7-1.6 1.6v39.9c0 .9.7 1.6 1.6 1.6h14.6c.9 0 1.6-.7 1.6-1.6v-39.9c0-.9-.7-1.6-1.6-1.6h-14.6z" fill="url(#s)" class="J"/><linearGradient id="t" gradientUnits="userSpaceOnUse" x1="2592.804" y1="314.37" x2="2592.804" y2="324.831"><stop offset=".192" stop-color="#7ea6d6"/><stop offset=".42" stop-color="#5e90cc"/><stop offset="1" stop-color="#425486"/></linearGradient><path d="M2588.5 314.4h8.6c.2 0 .4.2.4.4v10.1h-9.4v-10.1c0-.3.2-.4.4-.4z" fill="url(#t)"/><linearGradient id="u" gradientUnits="userSpaceOnUse" x1="2597.504" y1="322.454" x2="2588.104" y2="322.454"><stop offset=".191" stop-color="#425486"/><stop offset=".935" stop-color="#5072a9"/></linearGradient><path d="M2588.7 330.5h8.2c.3 0 .6-.3.6-.6V315c0-.3-.3-.6-.6-.6h-8.2c-.3 0-.6.3-.6.6v14.9c0 .4.3.6.6.6z" fill="url(#u)"/><linearGradient id="v" gradientUnits="userSpaceOnUse" x1="2592.874" y1="305.138" x2="2592.874" y2="349.834"><stop offset="0" stop-color="#242f65"/><stop offset=".925" stop-color="#242f65" stop-opacity=".332"/></linearGradient><path d="M2583.1 347.4v-39.9c0-1.3 1.1-2.4 2.4-2.4h14.6c1.3 0 2.4 1.1 2.4 2.4v39.9c0 1.3-1.1 2.4-2.4 2.4h-14.6c-1.3 0-2.4-1-2.4-2.4zm2.5-41.4c-.9 0-1.6.7-1.6 1.6v39.9c0 .9.7 1.6 1.6 1.6h14.6c.9 0 1.6-.7 1.6-1.6v-39.9c0-.9-.7-1.6-1.6-1.6h-14.6z" fill="url(#v)" class="J"/><linearGradient id="w" gradientUnits="userSpaceOnUse" x1="1985.228" y1="314.37" x2="1985.228" y2="324.831"><stop offset=".192" stop-color="#7ea6d6"/><stop offset=".42" stop-color="#5e90cc"/><stop offset="1" stop-color="#425486"/></linearGradient><path d="M1980.9 314.4h8.6c.2 0 .4.2.4.4v10.1h-9.4v-10.1c0-.3.2-.4.4-.4z" fill="url(#w)"/><linearGradient id="x" gradientUnits="userSpaceOnUse" x1="1989.927" y1="322.454" x2="1980.527" y2="322.454"><stop offset=".191" stop-color="#425486"/><stop offset=".935" stop-color="#5072a9"/></linearGradient><path d="M1981.1 330.5h8.2c.3 0 .6-.3.6-.6V315c0-.3-.3-.6-.6-.6h-8.2c-.3 0-.6.3-.6.6v14.9c0 .4.3.6.6.6z" fill="url(#x)"/><linearGradient id="y" gradientUnits="userSpaceOnUse" x1="1985.297" y1="305.138" x2="1985.297" y2="349.834"><stop offset="0" stop-color="#242f65"/><stop offset=".925" stop-color="#242f65" stop-opacity=".332"/></linearGradient><path d="M1975.6 347.4v-39.9c0-1.3 1.1-2.4 2.4-2.4h14.6c1.3 0 2.4 1.1 2.4 2.4v39.9c0 1.3-1.1 2.4-2.4 2.4H1978c-1.3 0-2.4-1-2.4-2.4zm2.4-41.4c-.9 0-1.6.7-1.6 1.6v39.9c0 .9.7 1.6 1.6 1.6h14.6c.9 0 1.6-.7 1.6-1.6v-39.9c0-.9-.7-1.6-1.6-1.6H1978z" fill="url(#y)" class="J"/><linearGradient id="z" gradientUnits="userSpaceOnUse" x1="1965.378" y1="296.595" x2="1965.378" y2="353.486"><stop offset=".12" stop-color="#717fa4"/><stop offset=".244" stop-color="#425486"/></linearGradient><path fill="url(#z)" d="M1958.7 353.5h13.3v-56.9h-13.3z"/><linearGradient id="AA" gradientUnits="userSpaceOnUse" x1="2309.861" y1="314.37" x2="2309.861" y2="324.831"><stop offset=".192" stop-color="#7ea6d6"/><stop offset=".42" stop-color="#5e90cc"/><stop offset="1" stop-color="#425486"/></linearGradient><path d="M2305.5 314.4h8.6c.2 0 .4.2.4.4v10.1h-9.4v-10.1c.1-.3.2-.4.4-.4z" fill="url(#AA)"/><linearGradient id="AB" gradientUnits="userSpaceOnUse" x1="2447.462" y1="316.6" x2="2447.462" y2="329.273"><stop offset=".191" stop-color="#425486"/><stop offset=".935" stop-color="#5072a9"/></linearGradient><path opacity=".74" fill="url(#AB)" d="M2344.9 316.6h205.2v12.7h-205.2z"/><linearGradient id="AC" gradientUnits="userSpaceOnUse" x1="2447.462" y1="316.12" x2="2447.462" y2="323.366"><stop offset="0" stop-color="#5e90cc"/><stop offset=".909" stop-color="#5e90cc" stop-opacity=".09"/><stop offset="1" stop-color="#5e90cc" stop-opacity="0"/></linearGradient><path fill="url(#AC)" d="M2344.9 323.4h205.2v-7.3h-205.2z" class="L"/><linearGradient id="AD" gradientUnits="userSpaceOnUse" x1="2314.561" y1="322.454" x2="2305.161" y2="322.454"><stop offset=".191" stop-color="#425486"/><stop offset=".935" stop-color="#5072a9"/></linearGradient><path d="M2305.8 330.5h8.2c.3 0 .6-.3.6-.6V315c0-.3-.3-.6-.6-.6h-8.2c-.3 0-.6.3-.6.6v14.9c0 .4.2.6.6.6z" fill="url(#AD)"/><linearGradient id="AE" gradientUnits="userSpaceOnUse" x1="2309.93" y1="305.138" x2="2309.93" y2="349.834"><stop offset="0" stop-color="#242f65"/><stop offset=".925" stop-color="#242f65" stop-opacity=".332"/></linearGradient><use xlink:href="#G" fill="url(#AE)" class="J"/><linearGradient id="AF" gradientUnits="userSpaceOnUse" x1="2290.396" y1="296.595" x2="2290.396" y2="353.486"><stop offset=".12" stop-color="#717fa4"/><stop offset=".244" stop-color="#425486"/></linearGradient><path fill="url(#AF)" d="M2283.8 353.5h13.2v-56.9h-13.2z"/><linearGradient id="AG" gradientUnits="userSpaceOnUse" x1="2631.347" y1="314.37" x2="2631.347" y2="324.831"><stop offset=".192" stop-color="#7ea6d6"/><stop offset=".42" stop-color="#5e90cc"/><stop offset="1" stop-color="#425486"/></linearGradient><path d="M2627 314.4h8.6c.2 0 .4.2.4.4v10.1h-9.4v-10.1c0-.3.2-.4.4-.4z" fill="url(#AG)"/><linearGradient id="AH" gradientUnits="userSpaceOnUse" x1="2738.46" y1="316.6" x2="2738.46" y2="329.273"><stop offset=".191" stop-color="#425486"/><stop offset=".935" stop-color="#5072a9"/></linearGradient><path opacity=".74" fill="url(#AH)" d="M2666.4 316.6h144.2v12.7h-144.2z"/><linearGradient id="AI" gradientUnits="userSpaceOnUse" x1="2738.46" y1="316.12" x2="2738.46" y2="323.366"><stop offset="0" stop-color="#5e90cc"/><stop offset=".909" stop-color="#5e90cc" stop-opacity=".09"/><stop offset="1" stop-color="#5e90cc" stop-opacity="0"/></linearGradient><path fill="url(#AI)" d="M2666.4 323.4h144.2v-7.3h-144.2z" class="L"/><linearGradient id="AJ" gradientUnits="userSpaceOnUse" x1="2636.047" y1="322.454" x2="2626.647" y2="322.454"><stop offset=".191" stop-color="#425486"/><stop offset=".935" stop-color="#5072a9"/></linearGradient><path d="M2627.3 330.5h8.2c.3 0 .6-.3.6-.6V315c0-.3-.3-.6-.6-.6h-8.2c-.3 0-.6.3-.6.6v14.9c-.1.4.2.6.6.6z" fill="url(#AJ)"/><linearGradient id="AK" gradientUnits="userSpaceOnUse" x1="2631.416" y1="305.138" x2="2631.416" y2="349.834"><stop offset="0" stop-color="#242f65"/><stop offset=".925" stop-color="#242f65" stop-opacity=".332"/></linearGradient><path d="M2621.7 347.4v-39.9c0-1.3 1.1-2.4 2.4-2.4h14.6c1.3 0 2.4 1.1 2.4 2.4v39.9c0 1.3-1.1 2.4-2.4 2.4h-14.6c-1.3 0-2.4-1-2.4-2.4zm2.4-41.4c-.9 0-1.6.7-1.6 1.6v39.9c0 .9.7 1.6 1.6 1.6h14.6c.9 0 1.6-.7 1.6-1.6v-39.9c0-.9-.7-1.6-1.6-1.6h-14.6z" fill="url(#AK)" class="J"/><linearGradient id="AL" gradientUnits="userSpaceOnUse" x1="2611.883" y1="296.595" x2="2611.883" y2="353.486"><stop offset=".12" stop-color="#717fa4"/><stop offset=".244" stop-color="#425486"/></linearGradient><path fill="url(#AL)" d="M2605.2 353.5h13.3v-56.9h-13.3z"/></g><linearGradient id="AM" gradientUnits="userSpaceOnUse" x1="961.751" y1="-3.354" x2="961.751" y2="390.575"><stop offset="0" stop-color="#2b4681"/><stop offset=".2" stop-color="#4e70a6"/><stop offset=".716" stop-color="#7ea6d6"/></linearGradient><path d="M757.4 368.6C869.2 94.8 1169.8 39.1 1404.1 56.4c242.3 24.7 390.4 162.4 454.6 298.5 13.8 29.3 43.6-.8 63 24.8.6.8 1.9.4 1.9-.6l-1-382.5L0-.2v390.4l1922.4.4c.6 0 1.1-.5 1.1-1.1 0-.6-.5-1-1-1.1L757.4 368.6z" fill="url(#AM)" class="I"/><linearGradient id="AN" gradientUnits="userSpaceOnUse" x1="-45.731" y1="152.426" x2="183.112" y2="381.269"><stop offset=".304" stop-color="#9dbbde"/><stop offset=".861" stop-color="#9dbbde" stop-opacity=".4"/></linearGradient><path d="M0 337.2h227.1C196.5 261.8 172.2 196.3.3 106.3L0 337.2z" fill="url(#AN)" class="I"/><path d="M243 .8h129.1v371.9H243zM1858.6-3.1h98.5V355h-98.5z" fill="#132968" opacity=".1" class="I"/><linearGradient id="AO" gradientUnits="userSpaceOnUse" x1=".349" y1="415.647" x2="1920" y2="415.647"><stop offset=".172" stop-color="#9ebce0"/><stop offset=".258" stop-color="#a2bcde"/><stop offset=".349" stop-color="#afbbd8"/><stop offset=".443" stop-color="#c4b9cf"/><stop offset=".538" stop-color="#e2b7c1"/><stop offset=".609" stop-color="#fdb5b5"/><stop offset=".786" stop-color="#fedada"/><stop offset=".883" stop-color="#fedada"/></linearGradient><path fill="url(#AO)" d="M.3 373.3H1920V458H.3z" class="I"/><g class="I"><linearGradient id="AP" gradientUnits="userSpaceOnUse" x1="1303.817" y1="51.008" x2="1303.817" y2="355.618"><stop offset="0" stop-color="#4a6ea7"/><stop offset=".816" stop-color="#7ea6d6"/></linearGradient><path d="M1774.1 279.2v-2.7h41.3l-4.6-6.5h-36.7v-44.1l-3.4-3.5V270h-3.8c-6.2-7.7-12.7-15.2-19.6-22.5v-47.4l-6.6-5.8v46.3c-4.9-5-10.1-10-15.3-14.8v-43.7h.5l-8.4-6.5h-40.8v-27.9l-3.4-2.1v30h-13.2l-9.3-5.9v-37.1l-6.6-3.6v36.7c-5.3-3.2-10.7-6.3-16.2-9.3v-35.8c-1.1-.6-2.2-1.1-3.4-1.6v35.6c-14.6-7.9-29.7-15.2-45.4-22V99.1c-1.1-.4-2.2-.9-3.4-1.3v33.3c-7.1-3-14.3-5.9-21.5-8.7V89.9l-6.6-2.3v32.3l-17.2-6.1V82.1c-1.1-.3-2.2-.7-3.4-1v31.6c-14.8-4.9-29.9-9.3-45.4-13.3V69c-1.1-.3-2.2-.5-3.4-.8v30.4c-6.8-1.7-13.7-3.3-20.6-4.8V63.9c-2.2-.4-4.4-.9-6.6-1.3v29.8l-18.1-3.5V59.5c-1.1-.2-2.2-.4-3.4-.5v29.4c-14.9-2.6-30-4.7-45.4-6.4V57.4h-3.4v24.2c-6.5-.7-13.1-1.3-19.7-1.8V51.4c-2.2-.1-4.4-.3-6.6-.4v28.3a434.08 434.08 0 0 0-16.1-.9v-21h-3.4v20.8c-10.4-.4-20.9-.7-31.4-.7l-13.9.1V57.4h-3.4v20.4l-21.7.8V51c-2.2.1-4.4.3-6.6.4v27.5c-5.7.3-11.4.8-17.1 1.2V57.4h-3.4v23.1c-15.3 1.4-30.5 3.2-45.4 5.5V58.6c-1.1.2-2.2.3-3.4.5v27.3A636.18 636.18 0 0 0 1168 90V62.7c-2.2.4-4.4.8-6.6 1.3v27.3l-18 3.8V67.8c-1.1.2-2.2.5-3.4.8V96c-15.4 3.6-30.6 7.6-45.4 12.2V80.4c-1.1.3-2.2.7-3.4 1v27.7l-19.8 6.5V87.8l-6.6 2.3V118a528.33 528.33 0 0 0-18.9 7.2V97c-1.1.4-2.2.9-3.4 1.3v28.2c-15.6 6.3-30.8 13.2-45.4 20.5v-29c-1.1.5-2.2 1.1-3.4 1.6v29.1c-6.4 3.3-12.7 6.7-18.9 10.1v-29.5l-6.6 3.6v29.7c-6.8 3.9-13.4 8-19.9 12.1v-30.4c-1.1.7-2.2 1.4-3.4 2v29.2H902c-2.8 2.1-5.6 4.3-8.4 6.5h2.6v31a392.01 392.01 0 0 0-17.9 16v-34.2l-6.6 5.8v34.8c-11.3 11.1-21.9 22.7-31.5 34.7h-27.1v6.5h22c-19.1 24.8-34.6 51.3-45.9 79.1h9.4c13.1-27.9 30.1-54.4 50.5-79.1h22.7v79.1h6.6v-79.1h17.9v79.1h3.4v-79.1h45.4v79.1h3.4v-79.1h19.9v79.1h6.6v-79.1h18.9v79.1h3.4v-79.1h45.4v79.1h3.4v-79.1h18.9v79.1h6.6v-79.1h19.8v79.1h3.4v-79.1h45.4v79.1h3.4v-79.1h18v79.1h6.6v-79.1h20.7v79.1h3.4v-79.1h45.4v79.1h3.4v-79.1h17.1v79.1h6.6v-79.1h21.7v79.1h3.4v-79.1h45.4v79.1h3.4v-79.1h16.1v79.1h6.6v-79.1h19.7v79.1h3.4v-79.1h45.4v79.1h3.4v-79.1h18.1v79.1h6.6v-79.1h20.6v79.1h3.4v-79.1h45.4v79.1h3.4v-79.1h17.2v79.1h6.6v-79.1h21.5v79.1h3.4v-79.1h45.4v79.1h3.4v-79.1h16.2v79.1h6.6v-79.1h22.5v79.1h3.4v-79.1h45.4v79.1h3.4v-79.1h15.3v79.1h6.6v-79.1h10.7c4.4 5.3 8.6 10.7 12.7 16.1v63l3.2-7.5v-58.4c13.6 26.2 25.1 45.7 34.6 65.9h9.4c-11.2-26.9-26-52.5-44.2-76.5zm-901.9-14.7H855c5.5-6.2 11.2-12.3 17.2-18.3v18.3zm24.6 0h-17.9v-24.8c5.8-5.6 11.8-11 17.9-16.3v41.1zm3.3-85.7h37.5c-13.1 8.7-25.7 17.8-37.5 27.4v-27.4zm45.4 85.7h-45.4v-44c14.2-12 29.3-23.3 45.4-34v78zm23.2 0h-19.9v-80.2c2.8-1.8 5.6-3.7 8.5-5.4h11.3v85.6zm0-92h-1c.3-.2.7-.4 1-.6v.6zm25.5 92h-18.9v-85.7h18.9v85.7zm0-92h-18.9V168c6.2-3.5 12.5-7 18.9-10.3v14.8zm48.7 92h-45.4v-85.7h45.4v85.7zm0-92h-45.4V156c14.6-7.5 29.7-14.5 45.4-21v37.5zm22.3 92h-18.9v-85.7h18.9v85.7zm0-92h-18.9v-38.9l18.9-7.3v46.2zm26.4 92h-19.8v-85.7h19.8v85.7zm0-92h-19.8v-48.6l19.8-6.7v55.3zm48.8 92H1095v-85.7h45.4v85.7zm0-92H1095v-56.3c14.8-4.6 29.9-8.8 45.4-12.4v68.7zm21.3 92h-18v-85.7h18v85.7zm0-92h-18V103c6-1.4 11.9-2.7 18-3.9v73.4zm27.4 92h-20.7v-85.7h20.7v85.7zm0-92h-20.7V97.8l20.7-3.7v78.4zm48.7 92h-45.4v-85.7h45.4v85.7zm0-92h-45.4V93.6c14.9-2.3 30-4.2 45.4-5.6v84.5zm20.4 92h-17.1v-85.7h17.1v85.7zm0-92h-17.1V87.7l17.1-1.3v86.1zm28.3 92h-21.7v-85.7h21.7v85.7zm0-92h-21.7V86.1c7.2-.4 14.4-.7 21.7-.8v87.2zm48.7 92h-45.4v-85.7h45.4v85.7zm0-92h-45.4V85.2c4.6-.1 9.3-.1 13.9-.1 10.5 0 21 .2 31.4.7v86.7zm19.5 92h-16.1v-85.7h16.1v85.7zm0-92h-16.1V85.9l16.1 1v85.6zm26.3 92h-19.7v-85.7h19.7v85.7zm0-92h-19.7V87.3c6.6.5 13.2 1.1 19.7 1.8v28m48.7 147.4h-45.4v-85.7h45.4v85.7zm0-92h-45.4v-83c15.3 1.7 30.5 3.9 45.4 6.5v76.5zm21.5 92h-18.1v-85.7h18.1v85.7zm0-92h-18.1V96.6c6.1 1.1 12.1 2.3 18.1 3.6v72.3zm27.3 92h-20.6v-85.7h20.6v85.7zm0-92h-20.6v-70.9c6.9 1.5 13.8 3.2 20.6 4.9v66zm48.7 92h-45.4v-85.7h45.4v85.7zm0-92h-45.4v-65.1c15.5 4 30.6 8.5 45.4 13.5v51.6zm20.5 92h-17.2v-85.7h17.2v85.7zm0-92h-17.2v-50.4l17.2 6.2v44.2zm28.2 92h-21.5v-85.7h21.5v85.7zm0-92h-21.5v-41.7c7.3 2.8 14.5 5.8 21.5 8.9v32.8zm48.7 92h-45.4v-85.7h45.4v85.7zm0-92h-45.4v-31.3c15.7 6.9 30.8 14.5 45.4 22.5v8.8zm3.4-6.9l12 6.9h-12v-6.9zm16.2 98.9H1628v-85.7h16.2v85.7zm29.1 0h-22.5v-85.3c7.7 4.8 15.2 9.8 22.5 14.9v70.4zm0-83.4c-1.1-.7-2.2-1.5-3.3-2.2h3.3v2.2zm48.8 83.4h-45.4v-68c16.1 11.6 31.3 23.8 45.4 36.8v31.2zm0-46.1c-14.1-12.4-29.2-24.1-45.4-35.1v-4.5h45.4v39.6zm18.6 46.1h-15.3v-28c5.3 5 10.4 10 15.3 15.1v12.9zm6.7 0v-5.8c1.8 1.9 3.5 3.9 5.3 5.8h-5.3z" fill="url(#AP)"/><linearGradient id="AQ" gradientUnits="userSpaceOnUse" x1="1309.12" y1="48.063" x2="1309.12" y2="355.618"><stop offset="0" stop-color="#4a6ea7"/><stop offset=".816" stop-color="#7ea6d6"/></linearGradient><path d="M1310.1 56.6c251.7 0 467.2 127.4 539.5 295.3l10.3.2-4.9-12.1c-68.1-161.1-284.4-291.9-544.8-291.9-262.8 0-489.1 136.1-551.6 307.6h12.2C855 165.1 1058.4 56.6 1310.1 56.6z" fill="url(#AQ)"/></g><linearGradient id="AR" gradientUnits="userSpaceOnUse" x1="752.608" y1="363.965" x2="1858.617" y2="363.965"><stop offset=".589" stop-color="#7ea6d6"/><stop offset=".776" stop-color="#7ea6d6"/></linearGradient><path fill="url(#AR)" d="M1858.6 373h-1106l8.6-18.1 1090 1.4z" class="I"/><g class="I K"><linearGradient id="AS" gradientUnits="userSpaceOnUse" x1="199.599" y1="130.929" x2="219.874" y2="110.654"><stop offset=".049" stop-color="#6291cb"/><stop offset=".681" stop-color="#97b6de"/></linearGradient><path d="M209.7 106.5a14.3 14.3 0 0 0 0 28.6 14.3 14.3 0 0 0 14.3-14.3c0-7.9-6.3-14.3-14.3-14.3z" fill="url(#AS)"/><linearGradient id="AT" gradientUnits="userSpaceOnUse" x1="209.736" y1="0" x2="209.736" y2="106.455"><stop offset=".187" stop-color="#6291cb"/><stop offset=".293" stop-color="#6291cb"/></linearGradient><path fill="url(#AT)" d="M210.3 0h-1.1v106.5h1.1z"/></g><g class="I K"><linearGradient id="AU" gradientUnits="userSpaceOnUse" x1="1834.83" y1="129.305" x2="1855.105" y2="109.03"><stop offset=".049" stop-color="#6291cb"/><stop offset=".681" stop-color="#97b6de"/></linearGradient><path d="M1845 104.8a14.3 14.3 0 1 0 0 28.6 14.3 14.3 0 1 0 0-28.6z" fill="url(#AU)"/><linearGradient id="AV" gradientUnits="userSpaceOnUse" x1="1844.967" y1="-1.624" x2="1844.967" y2="104.831"><stop offset=".187" stop-color="#6291cb"/><stop offset=".293" stop-color="#6291cb"/></linearGradient><path fill="url(#AV)" d="M1845.5-1.6h-1.1v106.4h1.1z"/></g><g class="I K"><linearGradient id="AW" gradientUnits="userSpaceOnUse" x1="830.437" y1="102.045" x2="849.918" y2="82.564"><stop offset=".049" stop-color="#6291cb"/><stop offset=".681" stop-color="#97b6de"/></linearGradient><path d="M840.2 78.5c-7.6 0-13.8 6.2-13.8 13.8s6.2 13.8 13.8 13.8S854 99.9 854 92.3s-6.2-13.8-13.8-13.8z" fill="url(#AW)"/><linearGradient id="AX" gradientUnits="userSpaceOnUse" x1="840.178" y1="3.244" x2="840.178" y2="78.53"><stop offset=".187" stop-color="#6291cb"/><stop offset=".293" stop-color="#6291cb"/></linearGradient><path fill="url(#AX)" d="M840.7 3.2h-1.1v75.3h1.1z"/></g><linearGradient id="AY" gradientUnits="userSpaceOnUse" x1="241.504" y1="455.365" x2="241.504" y2="455.462"><stop offset="0" stop-color="#132968"/><stop offset=".544" stop-color="#132968" stop-opacity="0"/></linearGradient><path d="M241.5 455.4c-.2-.1.2.2 0 0z" fill="url(#AY)" class="I K"/><g class="I"><linearGradient id="AZ" gradientUnits="userSpaceOnUse" x1="899.054" y1="381.843" x2="957.462" y2="381.843"><stop offset=".248" stop-color="#425485" stop-opacity="0"/><stop offset=".935" stop-color="#425485"/></linearGradient><path d="M900 380.8h56.5c.5 0 .9.5.9 1 0 .6-.4 1-.9 1H900c-.5 0-.9-.5-.9-1s.4-1 .9-1z" fill="url(#AZ)"/><linearGradient id="Aa" gradientUnits="userSpaceOnUse" x1="953.945" y1="291.546" x2="959.104" y2="291.546"><stop offset=".61" stop-color="#506ea3"/><stop offset=".81" stop-color="#6291cb"/><stop offset="1" stop-color="#7ea4d4"/></linearGradient><path fill="url(#Aa)" d="M953.9 200h5.2v183h-5.2z"/><path d="M1022.3 259.2H893.7c-5.4 0-9.8-4.4-9.8-9.8V216c0-5.4 4.4-9.8 9.8-9.8h128.6c5.4 0 9.8 4.4 9.8 9.8v33.4c-.1 5.4-4.4 9.8-9.8 9.8zm-128.6-50.1c-3.8 0-6.9 3.1-6.9 6.9v33.4c0 3.8 3.1 6.9 6.9 6.9h128.6c3.8 0 6.9-3.1 6.9-6.9V216c0-3.8-3.1-6.9-6.9-6.9H893.7z" fill="#9ebce0"/><linearGradient id="Ab" gradientUnits="userSpaceOnUse" x1="885.329" y1="232.701" x2="1030.593" y2="232.701"><stop offset="0" stop-color="#9cbadc"/><stop offset=".104" stop-color="#b2cae5"/><stop offset=".232" stop-color="#c6d8ed"/><stop offset=".38" stop-color="#d4e2f3"/><stop offset=".564" stop-color="#dce8f6"/><stop offset=".893" stop-color="#deeaf7"/></linearGradient><path d="M1030.6 249.4c0 4.6-3.7 8.4-8.3 8.4H893.7c-4.6 0-8.3-3.7-8.3-8.4V216c0-4.6 3.7-8.4 8.3-8.4h128.6c4.6 0 8.3 3.7 8.3 8.4v33.4z" fill="url(#Ab)"/><path d="M894.2 213.1h16.3v1.9h-16.3zm0 6.2h16.3v1.9h-16.3zm0 6.2h16.3v1.9h-16.3zm0 6.2h16.3v1.9h-16.3zm0 6.2h16.3v1.9h-16.3zm0 6.2h16.3v1.9h-16.3zm0 6.2h16.3v1.9h-16.3zm20.5-37.2h96.3v1.9h-96.3zm0 6.2h76.1v1.9h-76.1zm0 6.2h96.3v1.9h-96.3zm0 6.2h70.1v1.9h-70.1zm0 6.2h76.1v1.9h-76.1zm0 6.2h70.1v1.9h-70.1zm0 6.2h96.3v1.9h-96.3z" fill="#bfd3ea"/><linearGradient id="Ac" gradientUnits="userSpaceOnUse" x1="939.962" y1="188.398" x2="971.717" y2="188.398"><stop offset=".069" stop-color="#5e8ec8"/><stop offset=".21" stop-color="#6290c8"/><stop offset=".361" stop-color="#6f96ca"/><stop offset=".516" stop-color="#84a0cc"/><stop offset=".674" stop-color="#a2afcf"/><stop offset=".834" stop-color="#c9c1d3"/><stop offset=".994" stop-color="#f7d7d8"/><stop offset="1" stop-color="#f9d8d8"/></linearGradient><path d="M971.7 188.4c-.7 8.3-7.5 15.6-15.9 15.9-8.8.3-15.9-7.1-15.9-15.9s7.1-15.9 15.9-15.9 16.6 7.1 15.9 15.9z" fill="url(#Ac)"/><circle cx="955.8" cy="188.4" r="13" fill="#7ea6d6"/><linearGradient id="Ad" gradientUnits="userSpaceOnUse" x1="947.154" y1="189.811" x2="968.768" y2="189.811"><stop offset="0" stop-color="#9cbadc"/><stop offset=".257" stop-color="#9dbbdd"/></linearGradient><path d="M968.8 188.4c0-4.1-1.9-7.8-4.9-10.2L947.2 198c2.3 2.1 5.3 3.4 8.7 3.4 7.1 0 12.9-5.8 12.9-13z" fill="url(#Ad)"/><linearGradient id="Ae" gradientUnits="userSpaceOnUse" x1="954.723" y1="186.472" x2="963.744" y2="186.472"><stop offset=".463" stop-color="#5e8fca"/><stop offset=".9" stop-color="#5e8fca"/></linearGradient><path d="M962.7 196c-.3 0-.5-.1-.8-.3l-6.8-6.5c-.2-.2-.3-.5-.3-.8v-10.3c0-.6.5-1.1 1.1-1.1.6 0 1.1.5 1.1 1.1v9.8l6.5 6.2c.4.4.5 1.1 0 1.5-.3.3-.6.4-.8.4z" fill="url(#Ae)"/></g><linearGradient id="Af" gradientUnits="userSpaceOnUse" x1="1279.374" y1="405.043" x2="1945.273" y2="405.043"><stop offset="0" stop-color="#9ebce0" stop-opacity="0"/><stop offset=".396" stop-color="#9abadf" stop-opacity=".466"/><stop offset=".748" stop-color="#90b2db" stop-opacity=".88"/><stop offset=".85" stop-color="#8bafda"/></linearGradient><path fill="url(#Af)" d="M1279.4 352.1h665.9V458h-665.9z" class="I"/><linearGradient id="Ag" gradientUnits="userSpaceOnUse" x1="845.394" y1=".211" x2="845.394" y2="458"><stop offset="0" stop-color="#2b4681"/><stop offset=".141" stop-color="#3c5992"/><stop offset=".589" stop-color="#7096c8"/></linearGradient><path d="M834.5.2L714 .8c4.6 0 111.6 56.9 113.7 151.6s0 305.6 0 305.6h34.8V152.4C864.7 57.7 972.2.8 976.8.8L834.5.2z" fill="url(#Ag)" class="I"/><linearGradient id="Ah" gradientUnits="userSpaceOnUse" x1="1742.992" y1="0" x2="1742.992" y2="458"><stop offset="0" stop-color="#2b4681"/><stop offset=".141" stop-color="#3c5992"/><stop offset=".589" stop-color="#7096c8"/></linearGradient><path d="M1732.1.2L1611.4 0c4.6 0 111.8 57.7 113.9 152.4s0 305.6 0 305.6h34.8V152.4C1762.2 57.7 1869.9 0 1874.6 0l-142.5.2z" fill="url(#Ah)" class="I"/><linearGradient id="Ai" gradientUnits="userSpaceOnUse" x1="117.124" y1="105.324" x2="117.124" y2="337.027"><stop offset="0" stop-color="#4a6ea7"/><stop offset=".816" stop-color="#7ea6d6"/></linearGradient><path d="M188.1 264.5c16 22.4 29.2 46.1 39.3 71h6.5v-4.4C199 235 113.5 154.2.3 105.3v10.4c9.6 4.3 19.3 8.9 28.5 13.7v23.2c-9.1-5.1-18.9-9.9-28.5-14.5v10.3c9.6 4.8 19.4 9.9 28.5 15.2v8.3H.3v6h28.5v80.6H.3v6h28.5V337h3v-72.6h14.5V337h5.9v-72.6h20.1V337h3v-72.6h40.5V337h3v-72.6h13.7V337h5.9v-72.6h9.6c3.9 4.9 7.7 9.8 11.3 14.8V337l2.9-6.9v-53.6c12.1 24 22.4 41.9 30.9 60.5h8.4c-9.7-24.6-22.9-48.1-39.2-70.1v-2.4h25.8zm-25.8-32.3c7.6 8.5 14.7 17.3 21.4 26.3h-21.4v-26.3zM31.8 165.4c3.6 2.1 7.2 4.3 10.7 6.5H31.8v-6.5zm14.5 93.1H31.8v-80.6h14.5v80.6zm0-95.6l-14.5-8.5V131c4.9 2.6 9.7 5.3 14.5 8v23.9zm26 95.6h-20v-80.3c6.9 4.5 13.5 9.2 20.1 14.1v66.2zm0-78.5l-3-2.1h3v2.1zm0-8.1H60.6l-8.3-5.4v-24c6.8 4 13.5 8.2 20.1 12.5v16.9zm3-14.9c7.2 4.8 14.2 9.8 21.1 14.9H75.3V157zm40.5 101.5H75.3v-64c14.4 10.9 27.9 22.4 40.5 34.6v29.4zm0-43.3c-12.6-11.6-26.1-22.7-40.5-33V178h28.9l11.6 9.3v27.9zm16.7 43.3h-13.7v-26.4c4.7 4.7 9.3 9.4 13.7 14.2v12.2zm0-27c-4.4-4.6-9-9.1-13.7-13.6v-28.2c4.7 4 9.2 8 13.7 12.1v29.7zm5.9 27V253c1.6 1.8 3.1 3.6 4.7 5.5h-4.7zm20.9 0h-3.4c-5.5-7-11.4-13.9-17.5-20.6v-30.5c7.3 7 14.2 14.1 20.9 21.5v29.6z" fill="url(#Ai)" class="I"/><g class="I"><path d="M101.4 245.8c-2-3.4-2.3-7.5-1.6-10.1-1.2-.6-1-1.2-1.8-2.3-.2-.3-.5-.6-.8-.9.3-1.3.3-2.8 0-4.1-.2-1.1-.5-2.2-1.2-3.1-.7-.7-1.7-1.1-2.6-1.3-.7-.1-1.3-.1-2 .1-1.1.5-1.8 1.4-2.2 2.5s-.1 2.5-1 3.4c-.4.4-1.3.8-1.3 1.4.2.5.6.6 1 1 .2.8-.2 1.4 0 2.3.1.2.2.7-.1 1.2-.1.3-.1 1.4.5 1.5.5.1 1.2.1 2 .1.6.1 1.2.4 1.7.8.8.6 1.2 1.6 1.4 2.6s-.6 3.4-.7 4.4c1.8.3 4.2-.9 5.9-.8.2-.5.3-1 .3-1.6v1.2c.5.1 2.2 1.5 2.5 1.7z" class="M"/><linearGradient id="Aj" gradientUnits="userSpaceOnUse" x1="96.565" y1="221.458" x2="96.565" y2="240.536"><stop offset=".216" stop-color="#425486"/><stop offset=".841" stop-color="#4b6ea8"/></linearGradient><path d="M102.7 224c-2.2-4.1-10.1-2.2-11.5-1.2s-2.4 2.8-2.4 4.5c0 .4 3.9.4 3.4 3.1-.3 1.8-.5 6.1-1.6 7.5 5.7 3 12.9 3.4 13.3.8.5-3.2.9-10.6-1.2-14.7z" fill="url(#Aj)"/><path d="M38.6 208.2c2.2-1.9 7.1-1 9.7-2.1-1.9-4.1-1.5-5.6-.8-9.5.3-1.5 0-5 .4-6.5.5-1.8.7-3.9-.3-5.5-.8-1.4-2.4-2.2-4-2.2s-3.7.6-4.7 1.9c-1.3 1.7-.6 4-2.5 5.1-.4.2-1.8 1-2 1.3s.3 1.2.7 1.2c.1 0 .1.1.1.1l-1 2.8c-.1.3-.2.6-.2.9 0 .4.2.7.5 1 .7.8 2.5.9 3.4 1.5 1.6 1.1.9 2 1.3 3.8s.9 4.3-.6 6.2z" class="M"/><linearGradient id="Ak" gradientUnits="userSpaceOnUse" x1="39.821" y1="203.281" x2="39.821" y2="252.401"><stop offset=".216" stop-color="#425486"/><stop offset=".579" stop-color="#465f94"/></linearGradient><path d="M39.7 206.3c-.1-.7 0-1.6-.1-1.7-.8.4-.9.4-1.6 1s-.9 1.6-.9 2.5c.1.7.4 1.4.4 2.1 0 .4-.2.8-.4 1.2-2.2 5.3-2.4 7.6-2.7 13.4-2.9 3-3.1 6.7-5.8 6.3 1.1 1.2-4.4-1.4-6.8-.7 3.3 1.2 30 17.9 34.8 22 2.5-31.8.5-34.2-.2-39.2-.2-1.3-.6-2.6-1.4-3.6-.7-.9-1.7-1.5-2.6-2.1-1.8-1.2-3.5-2.7-5.1-4.3 0 .5.2.9.6 1.8-2.5 1.3-6-.2-8.2 1.3z" fill="url(#Ak)"/><linearGradient id="Al" gradientUnits="userSpaceOnUse" x1="45.786" y1="182.07" x2="45.786" y2="199.721"><stop offset=".216" stop-color="#425486"/><stop offset=".841" stop-color="#4b6ea8"/></linearGradient><path d="M39.5 185c1.7.7 3.4 1.5 2.6 3.2-.6 1.4-2 2.6-1.7 4.1 1-.1 1.3-1.5 2.2-2 .7-.4 1.7.1 1.9.9.3.8 0 1.7-.7 2.2-.3.2-.7.5-.7.8 0 .4.5.6.9.7 1.2.5 1.4 1.1 1.3 2.4-.1.7 1 2.3 1.7 2.4 1.3-2.2 2.8-3.3 4.2-5.4.5-.7.5-1.9.8-2.8.5-1.9.6-4.4-.4-6.1-2.7-4.6-10.2-3.2-12.2-3-.4.1-.2 2.4.1 2.6z" fill="url(#Al)"/></g><linearGradient id="Am" gradientUnits="userSpaceOnUse" x1="85.803" y1="250.108" x2="111.917" y2="276.222"><stop offset=".159" stop-color="#4b6ea8"/><stop offset=".181" stop-color="#4968a0"/><stop offset=".24" stop-color="#455d91"/><stop offset=".31" stop-color="#435689"/><stop offset=".416" stop-color="#425486"/></linearGradient><path d="M105.4 282.3c-.1-.9-1.1-1.3-1.5-2.2-5.8-11.1-.8-20.3-.5-21.2.6-2 1.7-5.1 1.6-7.2-.2-2.2-.9-3.9-1.8-5.9-.4-1-2.5-3.8-2.5-3.8-3.5 2.6-7.6.9-7.8 1.1-1.7 2.1-8.1 8.7-9 10.3-1 1.8-1.8 2.9-1.2 4.9.3.8 4.6 8.9.4 11.8 1.1.1 3.2 2.4 4.1 3 5.2 3.1 10.5 6.4 15.1 10.4-.2-1.7 3.4.5 3.1-1.2z" fill="url(#Am)" class="I"/><linearGradient id="An" gradientUnits="userSpaceOnUse" x1="79.224" y1="245.224" x2="96.302" y2="262.301"><stop offset=".159" stop-color="#4b6ea8"/><stop offset=".43" stop-color="#47639a"/></linearGradient><path d="M101.7 245.8s-3.4-.5-5.6 3.5c-1.5 2.7-5.6 7.8-8 10.8-1 1.3-2 2.4-3.5 1.6L72.3 253l-4.4 3.6s17.8 14.7 18.3 14.6c4.6-1.3 16.7-17.5 16.7-17.5s4.5-5.7-1.2-7.9z" fill="url(#An)" class="I"/><g class="I"><linearGradient id="Ao" gradientUnits="userSpaceOnUse" x1="95.228" y1="213.965" x2="95.228" y2="347.572"><stop offset=".204" stop-color="#5377ae"/><stop offset=".54" stop-color="#5e8ec8"/><stop offset=".677" stop-color="#6995cb"/><stop offset=".915" stop-color="#85a9d4"/></linearGradient><path d="M161.4 282.6h-60.8L.3 214v54.2L98 335.3l55.6-.9v13.1l8.8-.3c40.4-9.3 33.6-61.2-1-64.6z" fill="url(#Ao)"/><linearGradient id="Ap" gradientUnits="userSpaceOnUse" x1="56.931" y1="225.823" x2="56.931" y2="334.437"><stop offset="0" stop-color="#5e8ec8"/><stop offset=".232" stop-color="#6392ca"/><stop offset=".516" stop-color="#729ccf"/><stop offset=".826" stop-color="#8baed6"/><stop offset="1" stop-color="#9cbadc"/></linearGradient><path opacity=".47" fill="url(#Ap)" d="M15.8 225.8l23 68.8 59.3 39.8-21.6-68z"/><linearGradient id="Aq" gradientUnits="userSpaceOnUse" x1="75.485" y1="372.184" x2="78.988" y2="472.444"><stop offset="0" stop-color="#425486"/><stop offset=".662" stop-color="#425486" stop-opacity="0"/></linearGradient><path opacity=".35" fill="url(#Aq)" d="M97.6 411L1 475.2.3 374.8h153.4l-.5 35.9z"/><linearGradient id="Ar" gradientUnits="userSpaceOnUse" x1="77.008" y1="268.002" x2="77.008" y2="374.807"><stop offset=".408" stop-color="#5378b0"/><stop offset=".628" stop-color="#557db5"/><stop offset=".906" stop-color="#5b8ac5"/><stop offset="1" stop-color="#5e90cc"/></linearGradient><path fill="url(#Ar)" d="M98.1 334.4L.3 268v106.8h153.4v-40.4z"/><linearGradient id="As" gradientUnits="userSpaceOnUse" x1="96.972" y1="210.754" x2="96.972" y2="350.959"><stop offset=".712" stop-color="#46669f"/><stop offset="1" stop-color="#5e8fca"/></linearGradient><path d="M193.5 312.5c-.5-8.1-3.6-15.7-8.8-21.6-5.5-6.2-13.9-10.6-22.5-11.6h.1-60.8L.3 210.8v3.9l100.3 67.9h60.8c34.6 3.4 41.3 55.3 1 64.7l-8.8.3-.8-11.1-54.8-1.2L.3 268.2v3.7l96.8 65.8h1l52.4-.5V351l3.3-.1 8.8-.3h.3l.3-.1c10.1-2.4 18.3-7.5 23.7-14.8 4.8-6.7 7.1-14.9 6.6-23.2z" fill="url(#As)"/><path d="M72.3 253l-6.3-1.1c-1.4-.2-2.9.2-3.9 1.1-1.3 1.2-2.8 2.7-2.2 3l4 1.9 5.6-1.9 2.8-3z" class="M"/></g><linearGradient id="At" gradientUnits="userSpaceOnUse" x1="41.718" y1="193.445" x2="41.718" y2="208.217"><stop offset=".135" stop-color="#132968"/><stop offset="1" stop-color="#132968" stop-opacity="0"/></linearGradient><path d="M48.4 206.1c-1.9-4.1-1.5-5.6-.8-9.5.1-.7.1-1.9.1-3.2-2.6 1.3-5.3 1.4-7.7 2.6-.7.3-3 1.1-4.8 1.2.8.4 2.1.6 2.8 1.1 1.6 1.1.9 2 1.3 3.8.4 1.7.9 4.2-.5 6.1 2-1.9 7-1 9.6-2.1z" opacity=".28" fill="url(#At)" class="I"/><linearGradient id="Au" gradientUnits="userSpaceOnUse" x1="36.158" y1="224.407" x2="52.745" y2="225.567"><stop offset="0" stop-color="#547bb4"/><stop offset=".756" stop-color="#466096"/></linearGradient><path d="M49.4 207.4l-2 3.3h-7.2s-4.9 12.5-4.1 18.4l.8 5.8 12.5 8.4 3.5-19.3-3.5-16.6z" fill="url(#Au)" class="I K"/><linearGradient id="Av" gradientUnits="userSpaceOnUse" x1="95.403" y1="221.467" x2="95.403" y2="227.379"><stop offset="0" stop-color="#7ea6d6"/><stop offset=".618" stop-color="#6185b9" stop-opacity=".2"/></linearGradient><path d="M102 223.1c-2.8-2.9-9.5-1.2-10.8-.2-1.4 1.1-2.4 2.8-2.4 4.5 0 0 5.4-6.9 13.2-4.3z" fill="url(#Av)" class="I"/><g class="I"><linearGradient id="Aw" gradientUnits="userSpaceOnUse" x1="978.935" y1="403.972" x2="1080.053" y2="403.972"><stop offset=".132" stop-color="#425485" stop-opacity="0"/><stop offset=".76" stop-color="#425485" stop-opacity=".756"/></linearGradient><path d="M980.6 402.7h97.9c.9 0 1.6.6 1.6 1.3s-.7 1.3-1.6 1.3h-97.9c-.9 0-1.6-.6-1.6-1.3-.1-.8.7-1.3 1.6-1.3z" fill="url(#Aw)"/><linearGradient id="Ax" gradientUnits="userSpaceOnUse" x1="899.27" y1="402.67" x2="1021.337" y2="402.67"><stop offset=".108" stop-color="#425485" stop-opacity="0"/><stop offset=".737" stop-color="#425485" stop-opacity=".736"/></linearGradient><path d="M901.2 400.9h118.1c1.1 0 2 .8 2 1.7s-.9 1.7-2 1.7H901.2c-1.1 0-2-.8-2-1.7.1-.9.9-1.7 2-1.7z" fill="url(#Ax)"/><linearGradient id="Ay" gradientUnits="userSpaceOnUse" x1="872.944" y1="408.284" x2="940.717" y2="408.284"><stop offset=".166" stop-color="#425485" stop-opacity="0"/><stop offset=".728" stop-color="#425485" stop-opacity=".724"/></linearGradient><path d="M874 407.1h65.6c.6 0 1.1.5 1.1 1.2s-.5 1.2-1.1 1.2H874c-.6 0-1.1-.5-1.1-1.2s.5-1.2 1.1-1.2z" fill="url(#Ay)"/><path d="M1046.4 258.6c1.2 2.8-.1 6.4 1.7 9 .4.6 1.1 1.6 1.8 2.1.8.5 1.3.5 1.6-.7.5-1.9 0-4.5-.4-6.4-.4-2-.8-5.1-3-5.9" fill="#fdb5b5"/><linearGradient id="Az" gradientUnits="userSpaceOnUse" x1="1042.098" y1="315.03" x2="1045.954" y2="315.03"><stop offset=".215" stop-color="#fa9393"/><stop offset=".303" stop-color="#fa9393"/></linearGradient><path d="M1045.9 311.3c-1.1.6-2.6 1.1-3.8 1.6.1 1.9 1.4 3.8 1.4 5.8.9-2.3 2.8-4.9 2.4-7.4z" fill="url(#Az)"/><linearGradient id="BA" gradientUnits="userSpaceOnUse" x1="1038.196" y1="297.327" x2="1045.954" y2="297.327"><stop offset=".075" stop-color="#425485"/><stop offset=".159" stop-color="#425485"/></linearGradient><path d="M1040 280.6s-2.1 3.9-1.7 8.1c.5 4.2-1 18.6.8 20.7s2.2 1.7 2.2 1.7l.7 3 3.9-2.2v-12.2l-5.9-19.1z" fill="url(#BA)"/><linearGradient id="BB" gradientUnits="userSpaceOnUse" x1="1053.704" y1="308.432" x2="1053.704" y2="404.79"><stop offset=".017" stop-color="#132968"/><stop offset=".167" stop-color="#425486"/></linearGradient><path d="M1080.2 399.4c-1.6 0-3.3-.2-4.8-.9-7.1-4.3-4.8-7.5-5.1-7.8s-.5-.7-.7-1.2l-2.2-7c-.6-2.4-.9-4.9-1.2-7.4l-1.4-10.7c1-1.4 1.6-2.8 1.8-3.8.4-2.7.8-26.8.9-31.1.3 0 .3-3.6.3-6.6-.1-.2-.2-.4-.2-.6-.7-1.9.3-11.5-1.3-13.1-2.7-2.6-13.5 1.8-20.3 2-.2 1.3-4.3 10.8-2 15.8.2 4.4 3.6 10.2 3.6 10.2.7.2 5.1 18.4 5.9 21.5.6 2.3-6.6 4.8-11.5 10.6-2.8 3.3-5 7.4-7.6 10.2.6.7 1.2 1.8 1.2 1.8-.8.4-3.9 1.1-5.1 1-1.2.2-2.9 1.4-3.8 2.4a.76.76 0 0 0-.2.4c-.1.3 0 .6.1.8 1.4 3.3 2.4 6.8 3 10.4.2 1.1.3 2.2.7 3.3 1.1 3.2 4 5.3 6.9 4.9.3 0 .7-.1.9-.4.4-.7-.2-1.5-.6-2.2-1.1-1.8-.8-4.2-.5-6.4.1-.5 1.3-5.1 1.4-5.6 1.9-2.2 11.3-10.8 16.5-15.8.5 2.8 1 5.6 1.8 8.2 1 3.5 2.5 7 4.7 9.7.3.3.5.7.7 1.1.3.7.7 1.8 1.2 2.4.3.4 2.1 0 2.1 0-.1.7 0 2.3-.8 5-.2.9-.3 1.9-.4 2.8 0 .5.3.9.7.9h6.6c1.9 0 3.9 0 5.7-.7 1.4-.6 2.8-1.6 3.6-3.2.3-.2 0-.9-.6-.9z" fill="url(#BB)"/><linearGradient id="BC" gradientUnits="userSpaceOnUse" x1="1055.33" y1="319.303" x2="1055.33" y2="394.586"><stop offset=".396" stop-color="#587eb5"/><stop offset=".608" stop-color="#4e6b9f"/></linearGradient><path d="M1071.8 393c-.2-.4-1.9-3-2.1-3.4l-2.2-7c-.6-2.4-.9-4.9-1.2-7.4l-1.4-10.7s0-.1.1-.1c.9-1.4 1.5-2.7 1.7-3.7.4-2.7 1.7-31.4 1.5-41.4-4.4 10.1-4.3 18.3-3.9 24.8.4 7.4.4 16.3-.2 17.4-.6 1-3.7 2.2-8.5 5.6-2.4 1.7-6.9 7-8.4 9.8-4.6 9.3-3.3 5.1-8 8.3l.4.5 2.3 3.3c2.2-2.7 8.1-9.8 13.3-14.6l5.3-5.2c.5 10.9 7.2 21.6 7.5 22.2.3.8-.9 1.3.6 3.2.4-.5 2.4-1.1 3.2-1.6z" fill="url(#BC)"/><linearGradient id="BD" gradientUnits="userSpaceOnUse" x1="1070.563" y1="366.24" x2="1092.33" y2="366.24"><stop offset=".159" stop-color="#425485"/><stop offset=".813" stop-color="#6291cb"/></linearGradient><path d="M1091.6 364c-.2-1.9-1.1-4.3-2.8-4 1.5-3.6.8-7.8 0-11.7-.2-1-.4-2-1.1-2.7-.3-.3-.6-.4-.9-.6-2.6-1.5-3.6-1.1-9.5-3.5v-3.4c-.7.4-1.5.8-2.2 1.2-.5-.4-.7-1.1-.5-1.7.5-.2 1.1-.5 1.6-.7-1.4-.4-3 .5-3.5 2-.4 1.3 0 2.7-.4 4-.2.7-.6 1.4-.9 2.1-.7 1.6-.7 3.5-.8 5.3l-.2 29.9c0 1.5.1 3.2 1.1 4.3 1.9 2 5.2.4 7.7 1.4 1.6.7 2.7 2.5 3 4.3.4 1.8.1 3.7-.1 5.6.5 0 .9 0 1.4.1 1.2-3.6.7-7.8-1.3-10.9 2.3.2 4.7.2 7-.2.7-.1 1.4-.3 1.9-.7.9-.8 1-2.2 1-3.4.3-5.7.1-11.2-.5-16.7z" fill="url(#BD)"/><path d="M1088.8 360c1.5-3.6.8-7.8 0-11.7-.2-1-.4-2-1.1-2.7-.3-.3-.6-.4-.9-.6-2.5-1.5-3.5-1.1-8.8-3.2-.5 1.6-.8 3.2-.8 4.8 0 .7.1 1.6.6 2 .3.3.7.4 1.1.5 2.7.6 5.4.8 8.2.8l.6 9.9c-3.7.3-5.2.4-10.3.3-.3 1 1.1 1.1 7.9.9.7 0 1.8.1 2.4.5.9.6.8 1.6.9 2.8l1.5 20.3c.4-.1.8-.3 1.1-.5.9-.8 1-2.2 1-3.4.1-5.5-.2-11-.7-16.5-.1-2-1-4.5-2.7-4.2z" fill="#7ea6d6"/><linearGradient id="BE" gradientUnits="userSpaceOnUse" x1="1054.63" y1="271.254" x2="1054.63" y2="314.417"><stop offset=".231" stop-color="#7ea6d6"/><stop offset=".455" stop-color="#5e90cc"/></linearGradient><path d="M1060.6 272.4c.8.7 1.2 1.7 2.1 2.3.5.4 1.2.5 1.7.9 1.2.9 1.8 2.6 2.4 3.9 1.1 2.5 1.6 5.3 2.5 7.9.8 2.2.9 4.4.7 6.8-.2 1.8-.9 3.3-.9 5.1l.1 4.7c0 1.1.2 2-.4 3.1-1.4 2.6-1.3 6.7-3.9 7.1-3 .4-7.1-.5-10.2-.5-2 0-7.6.7-9.7.5.3-1-.3-5.4-.6-6.4-.5-1.6-.4-3.4-.7-5-.4-2.3-.9-4.6-1.5-6.9-.7-2.4-1.2-4.7-2-7.1-.9-2.4-1.6-6-.2-8.3 1.6-2.6 4.9-4.1 7.4-5.6 3.7-2.1 9.3-5.6 13.3-2.5 0 .3-.1.4-.1 0z" fill="url(#BE)"/><linearGradient id="BF" gradientUnits="userSpaceOnUse" x1="1038.325" y1="280.162" x2="1063.011" y2="255.476"><stop offset="0" stop-color="#bb4943" stop-opacity="0"/><stop offset=".108" stop-color="#bb4943"/><stop offset=".613" stop-color="#fa7776"/><stop offset=".762" stop-color="#fa9391"/><stop offset=".973" stop-color="#f9c0bd"/></linearGradient><path d="M1051.3 250.6c-1.5.6-2.9 1.8-3.7 3.3-.8 1.4-1.2 3-1.3 4.6-.1.9-.3 2.2.2 3 .3.5 1 .9 1.4 1.3.5.5 1.1.8 1.4 1.6.6 1.6.7 4.5-.6 5.6l-2.5 2c-.7.5-1.5 1.2-1.9 2-.3.7 0 1.3-.1 2-.1.6-.4.9-.7 1.3-.8.9-1.4 1.7-1.8 2.8-.8 2.2 0 3.8 1.7 5.2.4.4 1.1 1 1.5.8.4-.1.9-.8 1.3-1 1-.6 2.1-1.2 2.9-1.9 1.1-.9 1.8-2.3 2.2-3.6.4-1.1.5-2.6 1.2-3.6 1.1-1.6 2.9-2.1 4.2-3.3-.6 2.3-3.1 3.4-3 6.1-.1-1.4 2.4-2 3.4-2.3 1.4-.5 3.6-.9 4.6-2.2.5-.7.2-1.5 1.2-1.9.4-.2.8-.2 1.1-.5.4-.4.6-1.4.7-1.9.2-1.1.2-2.1 0-3.1-.2-.7-.5-1.5-1-2-.3-.3-.7-.5-1-.9-.8-1.2.8-4.1-.9-4.8 0-.9.1-1.7-.1-2.6-.2-1-.4-1.9-.9-2.8-3-5.2-8.8-3.5-9.5-3.2z" fill="url(#BF)"/><linearGradient id="BG" gradientUnits="userSpaceOnUse" x1="1056.476" y1="300.514" x2="1073.558" y2="293.263"><stop offset=".549" stop-color="#4b679a"/><stop offset=".76" stop-color="#5e8fca"/></linearGradient><path d="M1062.7 274.7s-5.6.2-6 5.3 0 4 0 4 3.4-6.5 3.5-4.6-2.4 6.5-2.4 6.5 3.1-3.3 1.8-.5l-2.3 5s3.9 22.9 5.3 24.5 2.2 1.3 2.2 1.3l1.6 3.3s4.3-1 5.7-3l-.6-2.9s1-2.9-.1-6.2-2.7-6.1-2.4-8.2c.3-2-.1-8.8-1.1-16.6-1-7.7-2-6.5-5.2-7.9z" fill="url(#BG)"/><linearGradient id="BH" gradientUnits="userSpaceOnUse" x1="1066.482" y1="329.063" x2="1078.995" y2="329.063"><stop offset=".215" stop-color="#fa9393"/><stop offset=".303" stop-color="#fa9393"/></linearGradient><path d="M1075 341.4c0-.7.5-2.7.5-3.2s-.6-.1.2.3c.4.2.4 1.3.4 1.7.1.5.6.8 1.1.7.6-.2 1.1-.4 1.4-.7.2-.2.3-.4.4-.7-.5-1.1-.2-2.7-.7-3.8-.9-2.1-2.4-3.1-3.1-6.1l-3.1-12.9c-.2-.1-.3 0-.2.1-1.7.6-3.5 2.3-5.4 2.5.1 1.2.9 2.6 1.4 3.7l1.6 4c.8 1.9.6 3.2.7 5.1.1 3.1 3.6 4.8 3.5 7.8v.3c0 .8.6 1.4 1.3 1.2z" fill="url(#BH)"/><linearGradient id="BI" gradientUnits="userSpaceOnUse" x1="1010.615" y1="392.903" x2="1010.615" y2="403.824"><stop offset="0" stop-color="#425585"/><stop offset=".305" stop-color="#3e4f80"/><stop offset=".708" stop-color="#313f73"/><stop offset="1" stop-color="#252e65"/></linearGradient><path d="M998.5 395.8c.3.4-.6 4.7-.5 7.8 0 0 4.3.4 8.3 0s13.7.8 16.9-.9c0 0 1-1.7-1.2-2.1s-6.6-2.5-12.5-5.9-3.8-.8-3.8-.8l-7.2 1.9z" fill="url(#BI)"/><linearGradient id="BJ" gradientUnits="userSpaceOnUse" x1="998.434" y1="380.466" x2="1012.742" y2="380.466"><stop offset=".08" stop-color="#425585"/><stop offset=".214" stop-color="#465584"/><stop offset=".344" stop-color="#525783"/><stop offset=".472" stop-color="#655980"/><stop offset=".599" stop-color="#805c7c"/><stop offset=".726" stop-color="#a46177"/><stop offset=".85" stop-color="#ce6671"/><stop offset=".958" stop-color="#fa6b6b"/></linearGradient><path d="M1000.8 371.2c-.3.4-2.7 12.6-1.5 15 1.2 2.5-1.5 4.1 0 7.5.4.8-1.1 1-.9 2.1s3.3 1.3 6.4.8 4.8-2.2 4.8-2.2-1.6-1.7-.5-2.7 0-2.8.5-3.8 0-4 .5-7 2.4-16.5 2.5-16.9c.2-.3-10.2 5.3-11.8 7.2z" fill="url(#BJ)"/><path d="M1013.3 250.5c.9 1.2 1.8 2.9 2.2 4.4.2 1.1-.6 2.1-.2 3.1.2.8 1.3 1.5 1.1 2.4-.1.5-.6.5-1 .8-.5.4-.3.8-.4 1.4 0 .2-.2.4-.3.5 0 .2.1.4.1.7 0 .5-.4.8-.5 1.2-.3.9.5 1.9-.5 2.6-.8.6-2.2.7-3.1 1.3-.5.3-1.1.8-1.5 1.2-.6.7-.7 1.5-1.1 2.3-.1.1-.1.3-.2.4-1.1-2.2-4-4-6.3-4.8-.6-.2-2.6-.1-2.1-.6.7-.7.8-2.5.9-3 .2-1.2.9-1.3.7-2.5-.2-1.8-.9-3.5-1-5.3-.1-1.1-.2-2.2.4-3.2s1.7-1.4 2.8-1.8c.7-.2 1.4-.4 1.8-1.2s.4-1.7 1-2.3c1.3-1.2 4.4-.8 5.5.4.3.3.4.8.7 1.1.4.5 1.2.4 1 .9z" fill="#bb4943"/><linearGradient id="BK" gradientUnits="userSpaceOnUse" x1="999.654" y1="266.172" x2="1013.033" y2="263.328"><stop offset=".335" stop-color="#bb4943"/><stop offset=".863" stop-color="#722721"/></linearGradient><path d="M1010.6 269.1c.9-.6 2.3-.7 3.1-1.3l.2-.2c-1.5.9-7.4-3.7-8.9-4.3-1.5-.5-.9-3.1-1.1-3-.7.1-2.1-3-2.1-3.2s-.6 1.6-1.1 3.1c.2.7.3 1.3.4 2 .2 1.2-.6 1.3-.7 2.5 0 .2-.1.7-.2 1.3v.9c-.1 0-.1.5-.1 1.2.5.1 1.2.1 1.5.2 2.2.8 5.2 2.6 6.3 4.8.1-.1.1-.3.2-.4.4-.8.5-1.6 1.1-2.3.4-.5.9-1 1.4-1.3z" fill="url(#BK)"/><linearGradient id="BL" gradientUnits="userSpaceOnUse" x1="973.375" y1="379.073" x2="973.375" y2="403.222"><stop offset="0" stop-color="#425585"/><stop offset=".305" stop-color="#3e4f80"/><stop offset=".708" stop-color="#313f73"/><stop offset="1" stop-color="#252e65"/></linearGradient><path d="M973.5 379.1s-4.2 1.8-6.3 3.1c0 0 2.5 9.3 4.4 13.1s5.2 7.7 7 8c0 0 1.3-.4.7-2.3-.7-1.9-2.1-5.2-1.6-6.9.5-1.8 1.4-6.1 1.4-6.1l-5.6-8.9z" fill="url(#BL)"/><linearGradient id="BM" gradientUnits="userSpaceOnUse" x1="973.441" y1="354.721" x2="1013.945" y2="354.721"><stop offset=".08" stop-color="#425585"/><stop offset=".361" stop-color="#445585"/><stop offset=".481" stop-color="#4b5684"/><stop offset=".57" stop-color="#585882"/><stop offset=".644" stop-color="#695a7f"/><stop offset=".708" stop-color="#805c7c"/><stop offset=".766" stop-color="#9d6078"/><stop offset=".819" stop-color="#bf6473"/><stop offset=".867" stop-color="#e5686e"/><stop offset=".889" stop-color="#fa6b6b"/></linearGradient><path d="M991.7 325c.2 5.9 3.9 12.8 6.3 18.1 1.4 3.1 2.1 4.8 2.6 8.2.3 2.4 1.8 5 1.4 7.6-5.5 1.3-9.1 5.3-13.9 8.6-3.3 2.3-6.3 8-11.4 9.5-1.9.3-2.3 1.3-2.4 1.5-3.2 0 2.7 8.7 4.8 9.3.9-1.1 6.5-5.5 8.5-6.9 7.1-4.9 15.1-8.1 21.9-13.2 2-1.5 3-2.2 3.5-4.8.3-1.8.2-4.3.5-5.9.6-2.9.5-7.5.4-12.8-.1-4.7.4-8.8-.6-13.5-.7-3.3-1.9-5.1-5.6-6.1-3.8-1-16.7 1.2-18-3.3" fill="url(#BM)"/><linearGradient id="BN" gradientUnits="userSpaceOnUse" x1="980.938" y1="311.562" x2="1017.375" y2="286.985"><stop offset=".713" stop-color="#30437a"/><stop offset=".88" stop-color="#5e8fca"/></linearGradient><path d="M995.3 265.3c-1.6-.1-2.7.5-3.8 1.7-2.1 2.2-2.8 5.6-3.5 8.4-.8 3.1-4.3 8.5.1 10 0 0-.6 9.2-1.4 13.1-1.5 7.4-2.3 14.1 1 21.2 1.1 2.3-.3 2.4 1.9 4 2.7 1.9 2.3 4.3 2.5 4.3 3.3-.2 17.6.8 20.6 0 0 0-.3-1.9.1-4 .4-1.6 1.6-1.9 1.8-3.5 1.6-11.3.2-31.4-2.9-36.8-.6-1.1-1.5-2.3-1.9-3.5-.6-1.6-.4-3.4-.9-5-.8-2.6-3.6-5.2-5.8-6.8-1.9-1.6-5.4-3.1-7.8-3.1" fill="url(#BN)"/><linearGradient id="BO" gradientUnits="userSpaceOnUse" x1="994.779" y1="334.238" x2="1003.921" y2="334.238"><stop offset=".431" stop-color="#9b3a34"/><stop offset=".566" stop-color="#9b3a34"/></linearGradient><path d="M995.4 329.9c0 2.1-1.1 3.8-.3 5.9.4 1 2 1.7 2.6 2.4.3.4-.1 1.1.3 1.4.5.3.9.2 1.2-.3.5-.8 0-1.8.6-2.6.7-.8 1.3-1.6 1.9-2.5.3.4.2.9.3 1.5.1.5.5.7.7 1.1.2.5-.2 1 0 1.5.2.6.6 0 .7-.4.1-.5-.1-1 0-1.5s.2-1.7.3-2.2c.2-1 .5-.9 0-1.9-.3-.7-.8-1.4-1.1-2.2-.4-1-.4-1.5-1.6-1.5-2.1.1-3.9.1-5.6 1.3z" fill="url(#BO)"/><linearGradient id="BP" gradientUnits="userSpaceOnUse" x1="994.8" y1="302.904" x2="1008.29" y2="302.904"><stop offset="0" stop-color="#425585"/><stop offset="1" stop-color="#5e8fca"/></linearGradient><path d="M1005.1 274.6s4.6 12.7 2.8 15.5-1.9 1.7-2.4 3-2.7 35.6-2.7 35.6-7.4 4.7-7.4 1.2c0-1.4-.9-3.8-.4-4.6 0 0 1.8-4.5 1.4-4.9s0-20.9 0-20.9-1.8-24.5 8.7-24.9z" fill="url(#BP)"/><linearGradient id="BQ" gradientUnits="userSpaceOnUse" x1="990.073" y1="302.124" x2="1005.569" y2="302.124"><stop offset=".515" stop-color="#425585"/><stop offset=".696" stop-color="#425585"/></linearGradient><path d="M1004.3 274.3c-12.4-6.8-10.6 17.4-12.1 22.8-1.3 4.9-2.8 8.9-1.8 14s2.5 10.3 4 15.2c.5 1.6.7 2.8 1.1 4.4 1 1.4 4-.2 3.7-2.1-4.3-.5.6-16.7 1.3-19.6-1.2.8-2.1 2-3.2 3.2.6-1.2.7-2.8.9-4.1-3.3-1.8-1.7-4.9-.3-7.2 1.9-3.1 2.6-5.2 2.4-9-.3-6-1.6-15.1 5.2-17.2l-1.2-.4z" fill="url(#BQ)"/><linearGradient id="BR" gradientUnits="userSpaceOnUse" x1="1005.588" y1="312.793" x2="1013.927" y2="312.793"><stop offset="0" stop-color="#425585"/><stop offset=".305" stop-color="#3e4f80"/><stop offset=".708" stop-color="#313f73"/><stop offset="1" stop-color="#252e65"/></linearGradient><path fill="url(#BR)" d="M1011 307.1l-5.4 8.1 2.7 3.3 5.6-8.7z"/><linearGradient id="BS" gradientUnits="userSpaceOnUse" x1="925.139" y1="390.857" x2="925.139" y2="395.65"><stop offset="0" stop-color="#496396"/><stop offset="1" stop-color="#5e8fca"/></linearGradient><circle cx="925.1" cy="393.3" fill="url(#BS)" r="2.4"/><linearGradient id="BT" gradientUnits="userSpaceOnUse" x1="923.211" y1="393.254" x2="927.067" y2="393.254"><stop offset="0" stop-color="#425585"/><stop offset=".123" stop-color="#3e5081"/><stop offset="1" stop-color="#252e65"/></linearGradient><circle cx="925.1" cy="393.3" fill="url(#BT)" r="1.9"/><linearGradient id="BU" gradientUnits="userSpaceOnUse" x1="929.306" y1="394.983" x2="929.306" y2="399.775"><stop offset="0" stop-color="#496396"/><stop offset="1" stop-color="#5e8fca"/></linearGradient><circle cx="929.3" cy="397.4" fill="url(#BU)" r="2.4"/><linearGradient id="BV" gradientUnits="userSpaceOnUse" x1="927.378" y1="397.379" x2="931.234" y2="397.379"><stop offset="0" stop-color="#425585"/><stop offset=".123" stop-color="#3e5081"/><stop offset="1" stop-color="#252e65"/></linearGradient><circle cx="929.3" cy="397.4" fill="url(#BV)" r="1.9"/><linearGradient id="BW" gradientUnits="userSpaceOnUse" x1="935.403" y1="399.288" x2="935.403" y2="404.08"><stop offset="0" stop-color="#496396"/><stop offset="1" stop-color="#5e8fca"/></linearGradient><circle cx="935.4" cy="401.7" fill="url(#BW)" r="2.4"/><linearGradient id="BX" gradientUnits="userSpaceOnUse" x1="933.475" y1="401.684" x2="937.331" y2="401.684"><stop offset="0" stop-color="#425585"/><stop offset=".123" stop-color="#3e5081"/><stop offset="1" stop-color="#252e65"/></linearGradient><circle cx="935.4" cy="401.7" fill="url(#BX)" r="1.9"/><linearGradient id="BY" gradientUnits="userSpaceOnUse" x1="953.29" y1="356.946" x2="953.29" y2="401.318"><stop offset=".815" stop-color="#425585"/><stop offset="1" stop-color="#252e65"/></linearGradient><path d="M969.3 356.9l3.5 2.9c.6.6-30.9 41-31.2 41.4s-5.6-.3-5.6-.3-1.7-.8-2.3-2.4 23.1-34.2 23.1-34.2l12.5-7.4z" fill="url(#BY)"/><linearGradient id="BZ" gradientUnits="userSpaceOnUse" x1="947.265" y1="352.62" x2="947.265" y2="398.269"><stop offset="0" stop-color="#5e8fca"/><stop offset=".26" stop-color="#496396"/></linearGradient><path d="M963.5 353.2c-.8-.2-1.9-.4-3.3-.5-2-.2-4 .7-5.4 2.2l-28.7 32.2c-.4.5-.8 1.1-1.1 1.7-.2.5-.4 1.1-.2 1.5.3.8 6.8 6.2 8.1 7.4l.3.3c.3.3 1.4 1.1 3.1-.8l32.5-38.4c.1-.1.2-.2.3-.4.3-.3.9-1.1-.1-2.1-.3-.2-2.7-1.6-3.9-2.3-.4-.5-.9-.7-1.6-.8z" fill="url(#BZ)"/><linearGradient id="Ba" gradientUnits="userSpaceOnUse" x1="924.816" y1="372.875" x2="965.082" y2="372.875"><stop offset="0" stop-color="#425585"/><stop offset=".123" stop-color="#3e5081"/><stop offset="1" stop-color="#252e65"/></linearGradient><path d="M964.6 353.4s-1.6-.5-4-.8c-2.2-.2-4.1.3-5.9 2.4l-28.9 32.5s-1.2 1.8-.8 2.6c.1.3 1.4 1.6 2.9 2.9.2-1.9 1.9-2.3 1.9-2.3l30.7-34.6c1.8-2.3 3.6-2.5 4.7-2.5-.4-.1-.6-.2-.6-.2z" fill="url(#Ba)"/><linearGradient id="Bb" gradientUnits="userSpaceOnUse" x1="956.866" y1="359.846" x2="956.866" y2="406.24"><stop offset="0" stop-color="#5e8fca"/><stop offset=".26" stop-color="#496396"/></linearGradient><path d="M972.8 359.8L939.4 399s-1.5 2.4-3.4 1.9c.6.1 7.3 5.3 7.3 5.3l.9-.9s.7.6 2.7-1.5 29.5-35.4 29.5-35.4 3.1-3.2-.3-5.8c-.6-.4-3.2-2.7-3.3-2.8z" fill="url(#Bb)"/><linearGradient id="Bc" gradientUnits="userSpaceOnUse" x1="940.883" y1="403.438" x2="940.883" y2="408.23"><stop offset="0" stop-color="#496396"/><stop offset="1" stop-color="#5e8fca"/></linearGradient><circle cx="940.9" cy="405.8" fill="url(#Bc)" r="2.4"/><linearGradient id="Bd" gradientUnits="userSpaceOnUse" x1="938.955" y1="405.834" x2="942.811" y2="405.834"><stop offset="0" stop-color="#425585"/><stop offset=".123" stop-color="#3e5081"/><stop offset="1" stop-color="#252e65"/></linearGradient><circle cx="940.9" cy="405.8" fill="url(#Bd)" r="1.9"/><linearGradient id="Be" gradientUnits="userSpaceOnUse" x1="975.037" y1="349.846" x2="994.882" y2="349.846"><stop offset="0" stop-color="#425585"/><stop offset=".123" stop-color="#3e5081"/><stop offset="1" stop-color="#252e65"/></linearGradient><path d="M994.2 337.1s.9.5.6 1.5l-18.7 24-1-.8 19.1-24.7z" fill="url(#Be)"/><linearGradient id="Bf" gradientUnits="userSpaceOnUse" x1="976.91" y1="350.125" x2="999.713" y2="350.125"><stop offset="0" stop-color="#425585"/><stop offset=".123" stop-color="#3e5081"/><stop offset="1" stop-color="#252e65"/></linearGradient><path d="M976.9 363.4l.6 1.2 22.1-26.9s.5-1.6-.4-2l-22.3 27.7z" fill="url(#Bf)"/><linearGradient id="Bg" gradientUnits="userSpaceOnUse" x1="958.007" y1="372.522" x2="958.007" y2="388.595"><stop offset="0" stop-color="#425585"/><stop offset=".123" stop-color="#3e5081"/><stop offset="1" stop-color="#252e65"/></linearGradient><path d="M964.4 372.5c-.2 0-2.2 2.8-2.2 2.8v1.3l-7.2 8.5h-1.2l-2.8 3 .6.5 2.5-2.8 1.1.2.3.7 8.9-10.2-1.1-1.3 1.7-2.3-.6-.4z" fill="url(#Bg)"/><linearGradient id="Bh" gradientUnits="userSpaceOnUse" x1="953.552" y1="385.759" x2="953.552" y2="389.597"><stop offset="0" stop-color="#425585"/><stop offset=".123" stop-color="#3e5081"/><stop offset="1" stop-color="#252e65"/></linearGradient><path fill="url(#Bh)" d="M954.1 385.8l-2.5 2.8 1 1 2.9-3-.4-.8z"/><linearGradient id="Bi" gradientUnits="userSpaceOnUse" x1="964.838" y1="372.901" x2="964.838" y2="376.43"><stop offset="0" stop-color="#425585"/><stop offset=".123" stop-color="#3e5081"/><stop offset="1" stop-color="#252e65"/></linearGradient><path fill="url(#Bi)" d="M965.1 372.9l-1.8 2.3v1.2h1.1l1.9-2.6z"/><linearGradient id="Bj" gradientUnits="userSpaceOnUse" x1="996.391" y1="255.145" x2="1014.503" y2="255.145"><stop offset="0" stop-color="#252e65"/><stop offset=".877" stop-color="#3e5081"/><stop offset="1" stop-color="#425585"/></linearGradient><path d="M1013.9 250.7c.6-.7.6-1.8.6-2.8 0-.5 0-1-.3-1.4-.4-.5-.7-.3-1.2-.4-1-.1-1.7-.7-2.7-.4-1.1.3-2.1.8-3.2.9-2.4.2-4.3-.1-6.5 1.1-1 .5-1.7 1.2-2 2.2-.2.8-.8 1.1-1.2 1.8-1.6 2.1-.9 4.9.4 6.9.8 1.1 1.7 2.2 2.2 3.4.4.9.4 1.8.5 2.7.8-.6 1.7-2 2.1-2.9.5-1 .1-2-.2-3-.4-1.1-.9-2.5-.1-3.3 1.9-2.1 4.4 1.8 4.6 2 .4.3 1.2-1.2 1.5-1.6.5-.9.3-1.8.2-2.8-.1-.5 0-1 .1-1.5.1-.4.1-1 .2-1.3.5-1 2-.5 2.8-.3s1.6 1.1 2.5.8" fill="url(#Bj)"/><g opacity=".25"><linearGradient id="Bk" gradientUnits="userSpaceOnUse" x1="1061.354" y1="402.457" x2="1061.354" y2="559.58"><stop offset="0" stop-color="#425486" stop-opacity=".753"/><stop offset=".226" stop-color="#425486" stop-opacity="0"/></linearGradient><path d="M1094.3 427.1v-.5c0-.6-.1-1.3-.3-1.9-.1-.4-.4-.8-.7-1.1-.1-.1-.3-.2-.5-.3h-.1c-.4-.2-.9-.3-1.4-.4-2.3-.4-4.7-.4-7-.2 2-3.2 2.6-7.5 1.3-11.1-.5 0-.9 0-1.4.1.2 1.9.4 3.8.1 5.7-.4 1.9-1.4 3.7-3 4.3-2.5 1-5.9-.7-7.7 1.4-1 1.1-1.1 2.8-1.1 4.3-.1 10.1 0 20.3.2 30.4 0 1.8.1 3.7.8 5.4.3.7.7 1.4.9 2.1.3 1.3-.1 2.8.4 4.1.1.3.3.6.5.9-1 2-3 3.5-3 5.9 0 2 .1 3.3-.7 5.2-.5 1.2-1 2.4-1.5 3.7-.1-12.3-1.2-35.5-1.5-37.9 0-.3-.1-.5-.2-.8 0-.1-.1-.3-.2-.4-.1-.2-.1-.3-.2-.5l-.3-.6c-.1-.1-.1-.2-.2-.4s-.3-.5-.4-.7c-.1-.1-.1-.2-.2-.3 0 0 0-.1-.1-.1.5-3.6 1-7.3 1.4-10.9.2-1.3.3-2.5.5-3.8.1-.6.2-1.2.3-1.9.1-.6.2-1.2.4-1.8.1-.6.3-1.2.5-1.8l.9-3c.3-.8.5-1.6.8-2.3.2-.4 1.9-3.1 2.1-3.5-.3-.2-.8-.4-1.3-.6.5-1.3 1.8-3 4.9-5 1.5-.7 3.2-.9 4.8-.9.6 0 .9-.8.6-1.3-.8-1.5-2.2-2.6-3.6-3.2-1.8-.7-3.8-.7-5.7-.7h-6.6c-.4 0-.8.4-.7.9.1 1 .2 1.9.4 2.9.8 2.8.7 4.3.8 5.1 0 0-1.8-.4-2.1 0-.5.6-.9 1.7-1.2 2.5-.2.4-.4.8-.7 1.1-2.2 2.8-3.6 6.3-4.7 9.9-.8 2.7-1.3 5.5-1.8 8.4-5.2-5-11.1-12.1-13.3-14.9l-.9 1.3c-1.1-1.1-1.9-1.9-2.3-2.4-.1-.5-1.3-5.2-1.4-5.7-.3-2.2-.6-4.7.5-6.5.4-.7 1-1.6.6-2.2-.2-.3-.6-.4-.9-.5-2.9-.4-5.9 1.8-6.9 5-.3 1.1-.5 2.2-.7 3.3-.6 3.7-1.6 7.2-3 10.6-.1.3-.2.6-.1.8 0 .2.1.3.2.4.9 1.1 2.5 2.3 3.8 2.5 1.2 0 4.2.6 5.1 1.1 0 0-.6 1.2-1.2 1.9 2.6 2.8 4.8 7 7.6 10.4 5 6 12.1 8.5 11.5 10.8-.8 3.2-5.2 21.6-5.9 21.8 0 0-3.3 5.9-3.6 10.3-1.2 2.8-.6 6.9.3 10.3-.3-.7-.6-1.3-.8-1.9 0 1.7-.9 3.3-1.2 4.9l-.2-.1-.7 3.1s-.4-.5-2.2 1.7c-1.8 2.1-.4 16.8-.8 21-.3 3 .6 5.7 1.2 7.2 0 .1.1.3.2.4.1.2.2.4.2.5 0 0 0 .1.1.1.8 1.3 2 2.3 3.3 3.2.1.1.1.2.2.3.4.4.7.7.7 1.3.1.7-.2 1.3.1 2 .4.8 1.2 1.5 1.9 2 .9.7 1.7 1.3 2.5 2.1.2.2.4.4.5.7-.5.5-.9 1.2-1.2 1.6-1.2 1.7-1 3.8-1.1 5.9-.2.1-.3.3-.4.5-.5.8-.3 2.1-.2 3 .1 1.6.6 3.3 1.3 4.7.8 1.4 2.1 2.7 3.7 3.3.6.2 6.5 2 9.5-3.1.5-.9.7-1.8.9-2.8.2-.9 0-1.8.1-2.7 1.7-.7.1-3.7.9-4.9.2-.4.7-.6 1-.9.5-.6.9-1.3 1-2.1.3-1.1.3-2.1 0-3.2-.1-.5-.3-1.5-.7-1.9-.3-.3-.7-.4-1.1-.5-.9-.4-.7-1-1-1.6.2-.3.5-.6.8-.8 3.2-1.4 4.2-.2 5.2-8.1.5-1.6.8-3.3 1.4-4.8.8-2.2.9-4.5.7-6.9-.2-1.8-.9-3.4-.9-5.2v-1.4c.3-1.9 1.5-4.2 2.3-6.8 1.1-3.4.1-6.3.1-6.3l.6-3-.1-.1c.4-2 2-8.7 3.1-13.1.7-3.1 2.2-4.1 3.1-6.2.5-1.1.2-2.8.7-3.9-.1-.3-.2-.6-.4-.7-.2-.2-.7-.5-1.3-.6v-.6c.2-.1.4-.2.7-.3 3.5-1.4 5.2-1.8 6.6-2.3.1 0 .2-.1.3-.1h.1c.1 0 .2-.1.3-.1 0 0 .1 0 .1-.1.1 0 .2-.1.3-.1.1 0 .1 0 .2-.1.1 0 .2-.1.3-.2 0 0 .1 0 .1-.1.2-.1.3-.2.5-.3.3-.2.7-.4.9-.6.3-.3.6-.8.7-1.2.2-.5.3-1 .4-1.5.3-1.5.5-3 .7-4.5s.2-3 0-4.5c-.1-1-.4-1.9-.7-2.9h.3c.4 0 .8-.2 1.1-.5l.2-.2c.6-.7.9-1.7 1.1-2.7 0-.2.1-.5.1-.7.3-2.8.5-5.6.6-8.4.2-3 .2-5.8.2-8.6zm-16.6 42.6c-.1.1-.2.1-.2.2 0-.2-.1-.4-.1-.7.2.1.4.2.5.3-.1.1-.1.2-.2.2z" fill="url(#Bk)"/><linearGradient id="Bl" gradientUnits="userSpaceOnUse" x1="974.97" y1="398.963" x2="974.97" y2="564.097"><stop offset="0" stop-color="#425486" stop-opacity=".753"/><stop offset=".226" stop-color="#425486" stop-opacity="0"/></linearGradient><path d="M1008.1 403.6c-4-.4-8.3 0-8.3 0-.1 3.1.9 7.5.5 7.9-.3 1.1 1.3 1.3.9 2.1-1.5 3.4 1.2 5.1 0 7.6-.9 1.8.1 9 .9 12.8-4.2-2.4-8.6-4.6-12.6-7.5-2-1.4-7.6-6-8.5-7 0 0-.9-4.4-1.4-6.2s.9-5.1 1.6-7-.7-2.4-.7-2.4c-1.8.3-5.1 4.3-7 8.1s-4.4 13.3-4.4 13.3c2 1.3 6.3 3.1 6.3 3.1.1.3.4.5.8.5.1.2.5 1.2 2.4 1.5 5.1 1.6 8 7.4 11.4 9.7 4.8 3.4 8.4 7.5 13.9 8.7.3 2.6-1.1 5.2-1.4 7.7-.5 3.4-1.2 5.2-2.6 8.3-.3.7-.7 1.5-1.1 2.3l-19.4-24c.7-2.1-1.1-3.9-1.1-3.9l-29.5-36c-2-2.2-2.7-1.5-2.7-1.5l-.9-.9c-.2-1.2-1.2-2-2.4-2-1.3 0-2.4 1.1-2.4 2.4 0 1 .6 1.9 1.5 2.2-.7.6-1.5 1.1-2.1 1.6-.2-1.2-1.2-2.1-2.4-2.1-1.3 0-2.4 1.1-2.4 2.4 0 1 .6 1.8 1.3 2.2-.2.3-.4.6-.6 1 0 .1 0 .2.1.4-.2.1-.4.2-.5.3l-.3.3c-.3.3-.9.7-1.6 1.3.2-.3.3-.7.3-1.1 0-1.3-1.1-2.4-2.4-2.4s-2.4 1.1-2.4 2.4 1.1 2.4 2.4 2.4c.3 0 .6-.1.8-.1l-2.3 2-.3.3v-.4c0-1.3-1.1-2.4-2.4-2.4s-2.4 1.1-2.4 2.4 1.1 2.4 2.4 2.4h.3l-.5.5c-.1.1-.1.1-.1.2s-.1.2-.1.4v.6c0 .1 0 .2.1.3 0 .1 0 .1.1.2 0 0 0 .1.1.1.3.6.6 1.1.6 1.1s.4.5 1.1 1.3c.3.4.7.8 1.2 1.3l.1.1 25.6 29.2c.2.2.3.3.4.5.1.1.2.3.4.4.1.2.3.3.4.4.3.4.7.7 1.1 1 1 .8 2.1 1.1 3.2 1.2h2.1c.2 0 .4-.1.6-.1h.3c.3 0 .5-.1.7-.1s.4-.1.6-.1c.6-.2 1-.3 1-.3s.2-.1.5-.3c.1 0 .2-.1.2-.1 1.2-.7 3.6-2.1 3.9-2.4.4-.4.6-.8.6-1.1a146.29 146.29 0 0 1 3.1-2.6l2.2-2 19.2 25.1s.9-.5.6-1.5L978 445.3l-.7.6c.3-.3.6-.5.7-.6.4-.3.6-.6.9-.9v.1l19.3 24.4c-1.7 3.7-3.5 7.8-4.2 11.7-.2 0 .2 2.5-2.5 4.4-2.2 1.5-.8 1.7-1.9 4-3.2 7.2-2.4 14-1 21.5.8 3.9 1.4 13.3 1.4 13.3-4.4 1.5-.9 6.9-.1 10.1.7 2.9 1.4 6.3 3.5 8.6 1.1 1.2 2.2 1.8 3.8 1.7 1.4 0 3.2-.5 4.8-1.2.1.2.1.5.2.7v.6c0 .2.1.4.1.5-.1 1-.1 1.8-.5 2.7-.6 1.3-1.5 2.3-2.2 3.5-1.3 2.1-2 4.9-.4 7 .5.6 1 1 1.2 1.8.3 1 1 1.7 2 2.3 2.2 1.2 4.1.9 6.5 1.1 1.1.1 2.1.6 3.2.9s1.7-.3 2.7-.4c.5-.1.9.1 1.2-.4.3-.4.3-1 .3-1.5 0-1 .1-2-.6-2.8h-.6c.9-1.2 1.8-2.9 2.1-4.4.2-1.1-.6-2.1-.2-3.2.2-.8 1.3-1.6 1.1-2.4-.1-.5-.6-.5-1-.9-.5-.5-.3-.8-.4-1.4 0-.2-.2-.4-.3-.5 0-.3.1-.5.1-.7 0-.5-.4-.8-.5-1.3-.2-.9.3-1.8-.4-2.5l-.2-.2c-.8-.6-2.2-.7-3.1-1.3-.5-.4-1.1-.8-1.5-1.3-.1-.1-.2-.3-.3-.4-.4-.6-.5-1.3-.9-1.9-.1-.1-.1-.2-.1-.3.5-.7.8-1.4 1-2.1.5-1.7.2-3.5.9-5.1.5-1.2 1.3-2.4 1.9-3.5 3-5.5 4.4-26 2.9-37.4-.2-1.6-1.5-1.9-1.8-3.5-.5-2.2-.1-4.1-.1-4.1-.1 0-.2-.1-.4-.1.5-.8.8-1.8 1-3 1-4.7.5-8.9.6-13.7.1-5.4.2-10.1-.4-13-.3-1.7-.2-4.1-.5-6-.1-.4-.1-.7-.2-1s-2-14.1-2.5-17.1 0-6-.5-7.1c-.5-1 .5-2.8-.5-3.8-1-1.1.5-2.8.5-2.8l-.3-.3c5.8-3.5 10.2-5.7 12.5-6s1.2-2.1 1.2-2.1c-3-1.8-12.7-.6-16.7-1z" fill="url(#Bl)"/><linearGradient id="Bm" gradientUnits="userSpaceOnUse" x1="1015.991" y1="558.938" x2="1015.991" y2="558.996"><stop offset="0" stop-color="#425486" stop-opacity=".753"/><stop offset=".226" stop-color="#425486" stop-opacity="0"/></linearGradient><path d="M1015.9 558.9c.1 0 .2 0 .2.1l-.2-.1z" fill="url(#Bm)"/></g><linearGradient id="Bn" gradientUnits="userSpaceOnUse" x1="314.261" y1="341.801" x2="314.261" y2="374.666"><stop offset="0" stop-color="#425486"/><stop offset=".865" stop-color="#425486" stop-opacity=".135"/><stop offset="1" stop-color="#425486" stop-opacity="0"/></linearGradient><path opacity=".32" fill="url(#Bn)" d="M256.7 341.8h115.2v32.9H256.7z"/><linearGradient id="Bo" gradientUnits="userSpaceOnUse" x1="317.536" y1="374.4" x2="317.536" y2="449.329"><stop offset="0" stop-color="#132968" stop-opacity=".85"/><stop offset=".544" stop-color="#132968" stop-opacity="0"/></linearGradient><path d="M356.7 401.1v-26.7h-3.9v26.7h-32.5v-26.7h-3.9v26.7h-32.5v-26.7H280v26.7h-13.4c-1.2 0-2.2.6-2.9 1.4H260v19.3h4.8v-13.6c.6.3 1.2.5 1.9.5h-.9v32.7c0 4.3 3.7 7.7 8.2 7.7h16c4.5 0 8.2-3.5 8.2-7.7v-32.7h4.1v32.7c0 4.3 3.7 7.7 8.2 7.7h16c4.5 0 8.2-3.5 8.2-7.7v-32.7h4.1v32.7c0 4.3 3.7 7.7 8.2 7.7h16c4.5 0 8.2-3.5 8.2-7.7v-32.7h4.1v32.7" opacity=".16" fill="url(#Bo)"/><linearGradient id="Bp" gradientUnits="userSpaceOnUse" x1="298.077" y1="395.497" x2="298.077" y2="474.169"><stop offset="0" stop-color="#132968" stop-opacity=".85"/><stop offset=".544" stop-color="#132968" stop-opacity="0"/></linearGradient><path d="M276.9 416.5c1.7 1.5 2.9 4 2.9 4s.6 1.8 1.7 2.8 2.2 2.6 2 2.8c-.2.1-.6.3-.8.6a.45.45 0 0 0 0 .5c.2.4 2.3 5.9 4.1 10.4.9 3 2.1 6 3.7 8.7-.5.1-1.8.3-1.8 1.5 0 1.3-.6 5.1 1.4 8.2-2.5 1.2-5.5 2.8-8.2 4.3-5.7 3.4-3.9 4.9-3.9 4.9a106.29 106.29 0 0 0 2.8 8.8H323l.7-6.9 1.2-4.9c-1-.9-2.4-1.5-3.8-1.7l-2.4-6-1.1-.1c-.2-3-1.2-8.1-2.9-8.8-2.3-.9-6.2-1.1-6.2-1.1V413s-2.6-.9-2.4-1.5c.1-.5-.6-3.7 0-4.8s-.2-4.8-.2-4.8l-1.1-1.9c.1-1.2 1.7-4-5-4.6 0 0-4.2.3-3.6 3.2s4 7.3 4.2 9c.2 1.5.7 3.4.5 3.9h-.8c-.3 0-.7 0-.7.1v.2c-.1.1-.2.1-.2.2-.5 3.2-.9 6.4-1.3 9.7l-1.8 11.2-5.7-8.7-1-.5s-3.7-6.2-3.7-6.5c0-.2-.2-2.6-1-4-.8-1.3-1.2-2.6-1.2-2.6s-.6.1-.7-.1-.5-2.5-3.6-2.3-6.3 1.8-7.3 3.2c0 0 .4 1 1.4 2.1.6 1.1 1.9 1.5 3.6 3zm12.7 54.8l-1.7-4.3h-.2v-.1l2-1.1c-.1 0 1.2 1.9-.1 5.5z" opacity=".17" fill="url(#Bp)"/><linearGradient id="Bq" gradientUnits="userSpaceOnUse" x1="317.066" y1="341.801" x2="317.066" y2="348.814"><stop offset=".202" stop-color="#5e8fca"/><stop offset=".313" stop-color="#5780b8"/><stop offset=".495" stop-color="#4d6c9f"/><stop offset=".606" stop-color="#496496"/></linearGradient><path d="M379.6 345.3c0 1.9-.4 3.5-2.1 3.5H257.6c-1.7 0-3.1-1.6-3.1-3.5s1.4-3.5 3.1-3.5h119.9c1.8 0 2.1 1.6 2.1 3.5z" fill="url(#Bq)"/><linearGradient id="Br" gradientUnits="userSpaceOnUse" x1="282.065" y1="348.548" x2="282.065" y2="374.4"><stop offset="0" stop-color="#425585"/><stop offset=".069" stop-color="#455a8b"/><stop offset=".45" stop-color="#5174aa"/><stop offset=".774" stop-color="#5984bd"/><stop offset="1" stop-color="#5c8ac4"/></linearGradient><path fill="url(#Br)" d="M280.1 348.5h3.9v25.9h-3.9z"/><linearGradient id="Bs" gradientUnits="userSpaceOnUse" x1="318.462" y1="348.548" x2="318.462" y2="374.4"><stop offset="0" stop-color="#425585"/><stop offset=".069" stop-color="#455a8b"/><stop offset=".45" stop-color="#5174aa"/><stop offset=".774" stop-color="#5984bd"/><stop offset="1" stop-color="#5c8ac4"/></linearGradient><path fill="url(#Bs)" d="M316.5 348.5h3.9v25.9h-3.9z"/><linearGradient id="Bt" gradientUnits="userSpaceOnUse" x1="354.858" y1="348.814" x2="354.858" y2="374.666"><stop offset="0" stop-color="#425585"/><stop offset=".069" stop-color="#455a8b"/><stop offset=".45" stop-color="#5174aa"/><stop offset=".774" stop-color="#5984bd"/><stop offset="1" stop-color="#5c8ac4"/></linearGradient><path fill="url(#Bt)" d="M352.9 348.8h3.9v25.9h-3.9z"/><linearGradient id="Bu" gradientUnits="userSpaceOnUse" x1="316.462" y1="302.947" x2="316.462" y2="342.065"><stop offset=".049" stop-color="#7ea6d6"/><stop offset=".08" stop-color="#769fd1"/><stop offset=".13" stop-color="#5f8bc2"/><stop offset=".141" stop-color="#5985be"/><stop offset=".458" stop-color="#557bb3"/></linearGradient><use xlink:href="#H" fill="url(#Bu)"/><linearGradient id="Bv" gradientUnits="userSpaceOnUse" x1="275.582" y1="302.947" x2="275.582" y2="342.065"><stop offset=".049" stop-color="#7ea6d6"/><stop offset=".08" stop-color="#769fd1"/><stop offset=".13" stop-color="#5f8bc2"/><stop offset=".141" stop-color="#5985be"/><stop offset=".458" stop-color="#557bb3"/></linearGradient><path d="M283.6 302.9h-16c-4.5 0-8.2 3.3-8.2 7.5v31.7h32.3v-31.7c0-4.1-3.6-7.5-8.1-7.5z" fill="url(#Bv)"/><linearGradient id="Bw" gradientUnits="userSpaceOnUse" x1="354.858" y1="302.947" x2="354.858" y2="342.065"><stop offset=".049" stop-color="#7ea6d6"/><stop offset=".08" stop-color="#769fd1"/><stop offset=".13" stop-color="#5f8bc2"/><stop offset=".141" stop-color="#5985be"/><stop offset=".458" stop-color="#557bb3"/></linearGradient><path d="M362.9 302.9h-16c-4.5 0-8.2 3.3-8.2 7.5v31.7H371v-31.7c0-4.1-3.6-7.5-8.1-7.5z" fill="url(#Bw)"/><linearGradient id="Bx" gradientUnits="userSpaceOnUse" x1="304.837" y1="294.269" x2="304.837" y2="320.594"><stop offset=".137" stop-color="#722721"/><stop offset=".237" stop-color="#722721"/></linearGradient><path d="M298.2 294.3c0 .1-.3 8.3-2.5 8.9.5 8.2 18.2 17.4 18.2 17.4l-5.8-25.9-2.7 2.2h-2.8l-4.4-2.6z" fill="url(#Bx)"/><linearGradient id="By" gradientUnits="userSpaceOnUse" x1="277.087" y1="315.901" x2="322.974" y2="315.901"><stop offset=".018" stop-color="#7ea6d6"/><stop offset=".729" stop-color="#9ebce0"/></linearGradient><path d="M321.7 308.8s-1.1-7.1-5.6-8.9c-6-2.5-7.8-4.2-7.6-4.2l.2-1.3-.2 1.3s0-.1-.3 1.7c-.2 1.2-2.4 4.9-4.7 7.5-1.8-.3-5.4-7.9-5.4-7.9l-.1-.4s.1-.2 0 0c-.2.5-.3.9-3.9 2.1-4.1 1.3-6.7 1.2-10.4 8-3.5 6.4-6.3 18.1-6.3 18.1s-1.8 1.7 3.9 5.3c5.7 3.7 13.4 7.4 13.4 7.4l23.1-1.2 5.1-13.6-1.2-13.9zm-32.5 15.4l-2-1.2 1.9-5c1.4 4 .1 6.2.1 6.2z" fill="url(#By)"/><linearGradient id="Bz" gradientUnits="userSpaceOnUse" x1="281.606" y1="311.997" x2="289.307" y2="311.997"><stop offset="0" stop-color="#7ea6d6"/><stop offset=".214" stop-color="#84aad8"/><stop offset=".489" stop-color="#94b5dd"/><stop offset=".623" stop-color="#9ebce0"/></linearGradient><path d="M287.4 323l1.8-4.7c.1.1.1.3.1.4V317c-.2-5.8-.2-10.5-1.4-15.8-.2.2.2-.2 0 0-.4 1.5-1.9 2.6-1.6 4.2.2.9.4 1.7.3 2.6s-.8 1.7-1.7 1.6c.9.6 1.8 1.1 2.8 1.7-1.1-.1-2.2.5-2.8 1.4-.7.9-1 2-1.3 3.1l-1.9 6.9c1.8-.4 3.8-.3 5.7.3z" fill="url(#Bz)"/><path d="M311 286.6c-.3-.5-1.2-.5-1.3.1l-6.2-3.7h-.2l-6.2 3.7c0-.6-1-.6-1.3-.1s-.1 1.1 0 1.7c.3 1.1.4 2.3 1 3.2.2.2.7.2.9.4.3.7.2 1.6.4 2.3.5 1.4 1.3 2 2.3 3.1.6.7 1.5 1.6 2.4 1.8a.9.9 0 0 1 .5.1h.2c.2 0 .3 0 .5-.1.9-.2 1.7-1.1 2.4-1.8 1-1.1 1.9-1.6 2.3-3.1.2-.7.1-1.6.4-2.3.1-.3.7-.2.9-.4.6-.9.7-2.2 1-3.2.2-.5.3-1.2 0-1.7z" fill="#bb4943"/><path d="M310 291.6c.2-.3.4-.7.5-1.1-.9-.1-1.8-.2-2.7 0-1.1.2-2.2.8-3.1 1.4-.3.2-.7.4-.8.8-.1.3 0 .6.1.8.1.3.3.5.4.8.1.2.1.3 0 .5s-.2.3-.3.5c-.1.1-.1.2-.2.4-.1.1-.2.2-.3.2 0 .2-.1.4.1.6.1.1.2.1.2.2.1.1.1.3 0 .5 0 .1-.8.6-.7.6.4.2 1.2 1.5.1 1.6 0 0 1.5.4 3.1-1.8.9-1.2 1.9-1.6 2.3-3.1.2-.7.1-1.6.4-2.3.2-.4.8-.4.9-.6z" fill="#c95a45"/><linearGradient id="CA" gradientUnits="userSpaceOnUse" x1="298.167" y1="293.183" x2="308.78" y2="293.183"><stop offset=".283" stop-color="#242f65"/><stop offset=".487" stop-color="#242f65"/></linearGradient><path d="M306.7 294.7h-.5c-1 0-1.8 0-2.2-.9-.2-.4-.3-.5-.5-.6-.1 0-.3.2-.5.6-.4.9-1.1.9-2.2.9h-.5c-1.4 0-1.8-1-1.9-1.5-.1-.4-.3-.8-.1-1.1s.7-.4 1.5-.4h1c1.1 0 1.7-.1 2.3.5h.7c.6-.5 1.2-.5 2.3-.5h1c.9 0 1.3.1 1.5.4s.1.7 0 1c-.2.6-.5 1.6-1.9 1.6zm-3.2-1.9c.3.1.6.2.8.8.3.7.8.7 1.9.7h.5c1.1 0 1.4-.7 1.6-1.3.1-.3.2-.6.1-.7s-.4-.3-1.2-.3h-1.1c-1 0-1.6-.1-2.1.4l-.1.1h-1l-.1-.1c-.5-.5-1-.5-2.1-.4h-1.1c-.9 0-1.2.1-1.2.3-.1.1 0 .4.1.7.2.6.5 1.3 1.6 1.3h.5c1.1 0 1.6-.1 1.9-.7.4-.5.7-.7 1-.8z" fill="url(#CA)"/><linearGradient id="CB" gradientUnits="userSpaceOnUse" x1="303.473" y1="276.72" x2="303.473" y2="291.513"><stop offset=".369" stop-color="#425486"/><stop offset=".744" stop-color="#132968"/></linearGradient><path d="M310.8 282.4c-.1-1.1-.7-2.1-1.6-2.5-.4-.2-.8-.2-1.3-.4-1.5-.6-2.2-2.1-3.6-2.6-.3-.1-.6-.1-.8-.1-.3 0-.6 0-.8.1-1.5.6-1.5 1.3-3 1.9-.4.2-.9.2-1.3.4-.9.4-2.1 2.1-2.2 3.2s.2 2.2.8 3c-.6 1.1-.1 2.6.4 3.8.3.7.7 1.4.9 2.2 0 .2.3.1.3 0 .2-1.6-.4-4 .5-4.2 1.1-.3 3.1.9 4.1 1.2.1 0 .3.1.3.1h.1c.1 0 .1 0 .2-.1 1-.4 3-1.5 4-1.2.9.2.3 2.6.6 4.2 0 .2.2.2.3 0 .2-.8.6-1.5.9-2.2.6-1.2.8-2.7.7-2.5.5-.9.6-3.2.5-4.3z" fill="url(#CB)"/><linearGradient id="CC" gradientUnits="userSpaceOnUse" x1="293.962" y1="328.002" x2="293.962" y2="400.296"><stop offset=".245" stop-color="#425486"/><stop offset=".692" stop-color="#547ab2"/><stop offset="1" stop-color="#5e90cc"/></linearGradient><path d="M316.6 334.1c.7.9-.4 10.7-2.7 11.8-2.3 1-6.2 1.1-6.2 1.1v34.4s-2.6 1-2.4 1.6-.6 4 0 5.2-.2 5.2-.2 5.2l-1.1 2c.1 1.3 1.7 4.3-5 5 0 0-4.2-.3-3.6-3.4s4-7.9 4.2-9.8.8-4.4.3-4.3-1.3.2-1.3 0-3.3-23-3.3-23l-5.7 9.5-1 .6-3.7 7c0 .2-.2 2.9-1 4.3s-1.2 2.8-1.2 2.8-.6-.2-.7.1c-.1.2-.5 2.7-3.6 2.5s-6.3-1.9-7.3-3.5c0 0 .4-1.1 1.4-2.2s2.3-1.5 4-3.2 2.9-4.4 2.9-4.4.6-1.9 1.7-3 2.2-2.8 2-3-1.1-.6-.8-1.2 5.2-15 6.4-17 1.6-3.7 1.6-3.7-2.1 0-2.1-1.7-1-7.4 2.9-10.8l3.9-3.4s.3-1.4.6-1.4h16.9l4.1 5.9z" fill="url(#CC)"/><linearGradient id="CD" gradientUnits="userSpaceOnUse" x1="301.625" y1="341.917" x2="301.625" y2="382.967"><stop offset=".351" stop-color="#252e65" stop-opacity=".65"/><stop offset=".891" stop-color="#252e65" stop-opacity="0"/></linearGradient><path d="M304.2 342c-1.4.4-1.8 2.2-2 3.6-.6 3.6-2.1 7-4.2 9.9-.6.9-1.4 1.7-1.7 2.8-.2.8-.2 1.6-.1 2.4.5 7.3 1.2 14.5 2.3 21.7 1 1.1 2.9.5 3.7-.8.8-1.2.7-2.8.6-4.3l-.8-14c-.2-3.4-.4-6.8-.4-10.2 0-1.7.1-3.5 1-4.9s3.1-2.1 4.4-1c.2-1.2.4-2.4 0-3.6s-1.7-1.9-2.8-1.6z" opacity=".64" fill="url(#CD)"/><path d="M293.7 338.2c.2-2.5 2.4-4.3 4.8-5.1 2.3-.8 4.9-.8 7.3-1.3-2.7.5-5.4 1.6-7.7 3.2.6-.1 1.1.4 1.2 1s-.1 1.1-.3 1.6c-2.9 7.5-6.8 14.7-11.4 21.3-1.5 2.2-3.2 4.4-3.7 7-.6.2-1.1.4-1.7.6 1.8-2.6 2.5-5.7 3.2-8.7 1.5-6 3.5-12 7.3-16.9.4-.4.7-.9.9-1.4.1-.4.1-.9.1-1.3z" opacity=".23" fill="#132968"/><linearGradient id="CE" gradientUnits="userSpaceOnUse" x1="298.077" y1="315.455" x2="316.092" y2="315.455"><stop offset=".253" stop-color="#7ea6d6" stop-opacity=".5"/><stop offset=".92" stop-color="#5e90cc"/></linearGradient><path d="M316.1 307.4l-1 14.6-17 1.4c0 .1 13.9-11.4 18-16z" opacity=".67" fill="url(#CE)"/><linearGradient id="CF" gradientUnits="userSpaceOnUse" x1="251.581" y1="395.302" x2="251.581" y2="442.638"><stop offset="0" stop-color="#252e65"/><stop offset=".245" stop-color="#323f73" stop-opacity=".704"/><stop offset=".575" stop-color="#3e4f80" stop-opacity=".305"/><stop offset=".828" stop-color="#425585" stop-opacity="0"/></linearGradient><path d="M259.8 442.6h-16.4c-4.3 0-7.8-2.8-7.8-6.3v-32.9c0-2.5 1.8-4.7 4.5-5.7-.1-.2-.1-.4-.1-.6 0-1 .9-1.7 2-1.7s2 .8 2 1.7h15.2c0-1 .5-1.7 1-1.7s1 .8 1 1.7v.1c3.6.5 6.4 3.1 6.4 6.2v32.9c0 3.5-3.5 6.3-7.8 6.3z" opacity=".28" fill="url(#CF)"/><path d="M259.8 340.2h-4.9v-26.6h.3c.2 0 .4-.1.5-.2.2-.2.6-.6 1.2-.8.3-.1.5-.3.5-.6v-.2c0-.3-.3-.6-.6-.7-.9-.1-2.9-.3-5.2-.3s-4.3.2-5.3.3c-.3 0-.6.3-.6.7v.2c0 .3.2.6.5.6.6.2 1.1.6 1.3.8.1.1.3.2.5.2h.3v26.6h-4.9c-4.3 0-7.8 3.3-7.8 7.4v38.6c0 3 1.8 5.5 4.5 6.7-.1.2-.1.5-.1.7 0 1.1.9 2 2 2s2-.9 2-2h15.2c0 1.1.5 2 1 2 .6 0 1-.9 1-2v-.2c3.6-.6 6.4-3.6 6.4-7.3v-38.6c0-4-3.5-7.3-7.8-7.3zm-10 0v-26.6h3.6v26.6h-3.6z" fill="#425486"/><linearGradient id="CG" gradientUnits="userSpaceOnUse" x1="252.656" y1="339.982" x2="252.656" y2="395.666"><stop offset=".601" stop-color="#4f6fa6"/><stop offset="1" stop-color="#4f6fa6" stop-opacity="0"/></linearGradient><path d="M260.2 395.7c.6 0 1-.9 1-2v-.2c3.6-.6 6.4-3.6 6.4-7.3v-38.6c0-4.1-3.5-7.4-7.8-7.4h-10v-.2h-1.5v.2h-4.9c-2.2 0-4.2.9-5.7 2.3h16.1c2.8 0 5.1 2.3 5.1 5.1v46h.2c.1 1.2.5 2.1 1.1 2.1z" fill="url(#CG)" class="K"/><linearGradient id="CH" gradientUnits="userSpaceOnUse" x1="291.445" y1="327.585" x2="316.092" y2="327.585"><stop offset=".455" stop-color="#5e90cc"/><stop offset=".657" stop-color="#5e90cc"/></linearGradient><path d="M316.1 333.1h-24.6v-10c0-.6.5-1 1-1h22.6c.6 0 1 .5 1 1v10z" fill="url(#CH)"/></g><linearGradient gradientUnits="userSpaceOnUse" x1="2068.412" y1="326.679" x2="2068.412" y2="326.679"><stop offset=".121" stop-color="#843c21"/><stop offset=".509" stop-color="#84484a"/><stop offset=".849" stop-color="#c9714e"/></linearGradient><linearGradient gradientUnits="userSpaceOnUse" x1="2096.781" y1="224.812" x2="2096.781" y2="224.812"><stop offset=".121" stop-color="#843c21"/><stop offset=".509" stop-color="#84484a"/><stop offset=".849" stop-color="#c9714e"/></linearGradient><linearGradient id="CI" gradientUnits="userSpaceOnUse" x1="2096.614" y1="284.177" x2="2094.778" y2="287.703"><stop offset=".497" stop-color="#d7a990"/><stop offset=".758" stop-color="#b96039" stop-opacity="0"/></linearGradient><path d="M2092.4 282.4c-3.3 1.1 3.7 9.4 8.4 4.3.1-.1.1-.1 0 0-2.9.7-7.9-2.2-8.4-4.3" fill="url(#CI)" class="I J"/></svg>